<svg width="500" height="500" viewBox="0 0 500 500" fill="none" xmlns="http://www.w3.org/2000/svg">
<path d="M131.591 50.5677L96.2936 22.9306C94.028 21.1568 90.7534 21.5554 88.9795 23.8209L30.401 98.6364C28.6271 100.902 29.0257 104.177 31.2913 105.95L66.5889 133.588C68.8544 135.361 72.1291 134.963 73.9029 132.697L132.481 57.8818C134.255 55.6162 133.857 52.3416 131.591 50.5677Z" fill="#F5F5F5"/>
<path d="M67.7905 123.56C67.7305 123.62 62.0005 119.23 54.9905 113.74C47.9805 108.25 42.3405 103.74 42.3905 103.67C42.4405 103.6 48.1705 108 55.1905 113.49C62.2105 118.98 67.8405 123.49 67.7905 123.56Z" fill="#E0E0E0"/>
<path d="M120.88 52.8205C120.82 52.8905 115.09 48.4905 108.08 43.0005C101.07 37.5105 95.4205 33.0005 95.4805 32.9305C95.5405 32.8605 101.26 37.2605 108.28 42.7505C115.3 48.2405 120.93 52.7505 120.88 52.8205Z" fill="#E0E0E0"/>
<path d="M54.3704 112.84C54.3004 112.78 66.4304 97.1797 81.4504 77.9997C96.4704 58.8197 108.71 43.2997 108.78 43.3497C108.85 43.3997 96.7304 58.9997 81.7004 78.1897C66.6704 97.3797 54.4404 112.89 54.3704 112.84Z" fill="#E0E0E0"/>
<path d="M87.8804 48.1306L91.0704 43.8506L95.0704 46.8506C95.3513 47.0596 95.5882 47.3221 95.7674 47.6229C95.9467 47.9237 96.0648 48.2569 96.1149 48.6035C96.1651 48.95 96.1464 49.303 96.0598 49.6423C95.9732 49.9816 95.8205 50.3005 95.6104 50.5806C95.188 51.1473 94.5582 51.5234 93.859 51.6265C93.1598 51.7296 92.4483 51.5512 91.8804 51.1306L87.8804 48.1306Z" fill="#EBEBEB"/>
<path d="M91.7904 44.3897L88.6004 48.6597L84.6004 45.6597C84.0253 45.243 83.639 44.6151 83.5265 43.9138C83.414 43.2126 83.5845 42.4953 84.0004 41.9197C84.2095 41.6387 84.4719 41.4019 84.7727 41.2226C85.0735 41.0434 85.4068 40.9253 85.7533 40.8751C86.0999 40.8249 86.4529 40.8437 86.7922 40.9303C87.1315 41.0168 87.4503 41.1696 87.7304 41.3797L91.7904 44.3897Z" fill="#E0E0E0"/>
<path d="M108.54 63.9099L111.73 59.6299L115.73 62.6299C116.297 63.054 116.674 63.6856 116.777 64.3864C116.88 65.0872 116.701 65.8004 116.28 66.3699C115.854 66.9357 115.222 67.31 114.521 67.4112C113.821 67.5124 113.108 67.3322 112.54 66.9099L108.54 63.9099Z" fill="#EBEBEB"/>
<path d="M112.45 60.1597L109.26 64.4397L105.26 61.4397C104.979 61.2307 104.742 60.9682 104.563 60.6674C104.384 60.3666 104.266 60.0334 104.215 59.6868C104.165 59.3403 104.184 58.9873 104.271 58.648C104.357 58.3087 104.51 57.9898 104.72 57.7097C104.929 57.4288 105.191 57.1919 105.492 57.0127C105.793 56.8334 106.126 56.7153 106.473 56.6651C106.819 56.615 107.172 56.6337 107.512 56.7203C107.851 56.8069 108.17 56.9596 108.45 57.1697L112.45 60.1597Z" fill="#E0E0E0"/>
<path d="M78.9302 59.9304L82.1202 55.6504L86.1202 58.6504C86.6875 59.0746 87.0638 59.7061 87.1669 60.4069C87.27 61.1077 87.0914 61.8209 86.6702 62.3904C86.2445 62.9562 85.6123 63.3305 84.9115 63.4317C84.2108 63.5329 83.4985 63.3527 82.9302 62.9304L78.9302 59.9304Z" fill="#EBEBEB"/>
<path d="M82.8301 56.1802L79.6501 60.4602L75.6501 57.4602C75.3692 57.2512 75.1323 56.9887 74.9531 56.6879C74.7738 56.3871 74.6557 56.0539 74.6056 55.7074C74.5554 55.3608 74.5741 55.0078 74.6607 54.6685C74.7473 54.3292 74.9 54.0103 75.1101 53.7302C75.3192 53.4493 75.5816 53.2124 75.8824 53.0332C76.1832 52.8539 76.5165 52.7358 76.863 52.6856C77.2095 52.6355 77.5626 52.6542 77.9019 52.7408C78.2412 52.8274 78.56 52.9801 78.8401 53.1902L82.8301 56.1802Z" fill="#E0E0E0"/>
<path d="M100.06 76.0503L103.25 71.7803L107.25 74.7803C107.817 75.2026 108.193 75.8324 108.296 76.5316C108.399 77.2308 108.221 77.9423 107.8 78.5103C107.591 78.7923 107.328 79.0303 107.027 79.2106C106.725 79.3909 106.392 79.51 106.044 79.5611C105.697 79.6122 105.343 79.5942 105.002 79.5083C104.662 79.4224 104.342 79.2701 104.06 79.0603L100.06 76.0503Z" fill="#EBEBEB"/>
<path d="M104 72.3106L100.82 76.5906L96.8201 73.5906C96.5391 73.3815 96.3023 73.1191 96.123 72.8183C95.9438 72.5175 95.8257 72.1843 95.7755 71.8377C95.7253 71.4912 95.7441 71.1381 95.8307 70.7989C95.9172 70.4596 96.07 70.1407 96.2801 69.8606C96.7024 69.2939 97.3322 68.9178 98.0314 68.8147C98.7306 68.7116 99.4421 68.8899 100.01 69.3106L104 72.3106Z" fill="#E0E0E0"/>
<path d="M70 71.7204L73.19 67.4404L77.19 70.4404C77.4709 70.6495 77.7078 70.9119 77.887 71.2127C78.0663 71.5135 78.1844 71.8467 78.2346 72.1933C78.2847 72.5398 78.266 72.8929 78.1794 73.2322C78.0928 73.5714 77.9401 73.8903 77.73 74.1704C77.3077 74.7371 76.6779 75.1132 75.9787 75.2163C75.2795 75.3194 74.5679 75.1411 74 74.7204L70 71.7204Z" fill="#EBEBEB"/>
<path d="M73.8803 68.0005L70.6903 72.2805L66.6903 69.2805C66.4086 69.0722 66.1708 68.8103 65.9906 68.5099C65.8104 68.2094 65.6914 67.8764 65.6403 67.5298C65.5892 67.1832 65.607 66.8299 65.6928 66.4903C65.7786 66.1506 65.9307 65.8312 66.1403 65.5505C66.562 64.9924 67.1859 64.6221 67.8778 64.5193C68.5698 64.4164 69.2744 64.5892 69.8403 65.0005L73.8803 68.0005Z" fill="#E0E0E0"/>
<path d="M91.5801 88.1999L94.7601 83.9199L98.7601 86.9199C99.041 87.129 99.2779 87.3914 99.4571 87.6922C99.6364 87.993 99.7545 88.3262 99.8046 88.6728C99.8548 89.0193 99.8361 89.3724 99.7495 89.7117C99.6629 90.0509 99.5102 90.3698 99.3001 90.6499C98.8777 91.2166 98.2479 91.5927 97.5487 91.6958C96.8496 91.7989 96.138 91.6206 95.5701 91.1999L91.5801 88.1999Z" fill="#EBEBEB"/>
<path d="M95.4801 84.4601L92.2901 88.7401L88.2901 85.7401C88.0057 85.5331 87.7651 85.272 87.582 84.9718C87.3989 84.6715 87.2768 84.3381 87.2229 83.9906C87.1691 83.6431 87.1843 83.2883 87.2679 82.9467C87.3515 82.6051 87.5018 82.2834 87.7101 82.0001C88.1342 81.4327 88.7657 81.0564 89.4666 80.9533C90.1674 80.8503 90.8805 81.0289 91.4501 81.4501L95.4801 84.4601Z" fill="#E0E0E0"/>
<path d="M59.8203 83.8405L63.0003 79.5605L67.0003 82.5605C67.2812 82.7696 67.5181 83.032 67.6974 83.3328C67.8766 83.6336 67.9947 83.9669 68.0449 84.3134C68.095 84.66 68.0763 85.013 67.9897 85.3523C67.9031 85.6916 67.7504 86.0104 67.5403 86.2906C67.3313 86.5715 67.0688 86.8083 66.768 86.9876C66.4672 87.1668 66.134 87.2849 65.7874 87.3351C65.4409 87.3853 65.0879 87.3665 64.7486 87.28C64.4093 87.1934 64.0904 87.0406 63.8103 86.8306L59.8203 83.8405Z" fill="#EBEBEB"/>
<path d="M63.7202 80.0904L60.5302 84.3704L56.5302 81.3704C55.966 80.9432 55.5936 80.3103 55.4943 79.6096C55.395 78.9089 55.5769 78.1974 56.0002 77.6304C56.4259 77.0646 57.0581 76.6902 57.7588 76.589C58.4596 76.4879 59.1719 76.6681 59.7402 77.0904L63.7202 80.0904Z" fill="#E0E0E0"/>
<path d="M81.6001 100.07L84.7901 95.79L88.7901 98.79C89.0718 98.9983 89.3095 99.2602 89.4897 99.5607C89.6699 99.8611 89.789 100.194 89.8401 100.541C89.8912 100.887 89.8733 101.241 89.7875 101.58C89.7017 101.92 89.5497 102.239 89.3401 102.52C89.1311 102.801 88.8686 103.038 88.5678 103.217C88.267 103.396 87.9338 103.514 87.5872 103.565C87.2407 103.615 86.8876 103.596 86.5484 103.509C86.2091 103.423 85.8902 103.27 85.6101 103.06L81.6001 100.07Z" fill="#EBEBEB"/>
<path d="M85.5103 96.3301L82.3203 100.6L78.3203 97.6001C77.7545 97.1744 77.3802 96.5422 77.279 95.8415C77.1778 95.1407 77.358 94.4284 77.7803 93.8601C77.9893 93.5792 78.2518 93.3423 78.5526 93.1631C78.8534 92.9838 79.1866 92.8657 79.5332 92.8155C79.8797 92.7654 80.2328 92.7841 80.572 92.8707C80.9113 92.9573 81.2302 93.11 81.5103 93.3201L85.5103 96.3301Z" fill="#E0E0E0"/>
<path d="M50.8403 97.49L54.0003 93.21L58.0003 96.21C58.5661 96.6356 58.9405 97.2679 59.0416 97.9686C59.1428 98.6693 58.9626 99.3817 58.5403 99.95C58.3313 100.231 58.0688 100.468 57.768 100.647C57.4672 100.826 57.134 100.944 56.7875 100.995C56.4409 101.045 56.0879 101.026 55.7486 100.939C55.4093 100.853 55.0905 100.7 54.8103 100.49L50.8403 97.49Z" fill="#EBEBEB"/>
<path d="M54.75 93.74L51.56 98L47.56 95C46.9947 94.5793 46.6185 93.9522 46.5136 93.2554C46.4087 92.5585 46.5836 91.8485 47 91.28C47.2091 90.9991 47.4715 90.7622 47.7723 90.583C48.0731 90.4037 48.4064 90.2856 48.7529 90.2355C49.0995 90.1853 49.4525 90.204 49.7918 90.2906C50.1311 90.3772 50.4499 90.5299 50.73 90.74L54.75 93.74Z" fill="#E0E0E0"/>
<path d="M71.5703 112.93L74.7603 108.65L78.7603 111.65C79.042 111.859 79.2798 112.121 79.4599 112.421C79.6401 112.721 79.7592 113.055 79.8103 113.401C79.8614 113.748 79.8435 114.101 79.7577 114.441C79.6719 114.78 79.5199 115.1 79.3103 115.38C79.1013 115.661 78.8388 115.898 78.538 116.077C78.2372 116.257 77.904 116.375 77.5574 116.425C77.2109 116.475 76.8579 116.456 76.5186 116.37C76.1793 116.283 75.8604 116.13 75.5803 115.92L71.5703 112.93Z" fill="#EBEBEB"/>
<path d="M75.48 109.18L72.29 113.46L68.29 110.46C67.7242 110.035 67.3499 109.403 67.2487 108.702C67.1475 108.001 67.3278 107.289 67.75 106.72C67.9591 106.44 68.2215 106.203 68.5223 106.023C68.8231 105.844 69.1563 105.726 69.5029 105.676C69.8494 105.626 70.2025 105.644 70.5418 105.731C70.8811 105.818 71.1999 105.97 71.48 106.18L75.48 109.18Z" fill="#E0E0E0"/>
<path d="M469.46 301.46L405.22 323.35C404.572 323.571 403.887 323.661 403.204 323.616C402.521 323.572 401.853 323.393 401.24 323.09C400.626 322.787 400.078 322.366 399.626 321.852C399.175 321.337 398.83 320.739 398.61 320.09L353.8 188.55C353.578 187.902 353.486 187.217 353.529 186.533C353.573 185.85 353.75 185.181 354.052 184.566C354.354 183.952 354.774 183.402 355.289 182.95C355.803 182.498 356.402 182.151 357.05 181.93L421.29 160.05C422.598 159.605 424.028 159.698 425.268 160.307C426.507 160.916 427.454 161.993 427.9 163.3L472.71 294.85C472.932 295.498 473.024 296.183 472.98 296.865C472.937 297.548 472.759 298.216 472.457 298.83C472.155 299.444 471.735 299.993 471.221 300.444C470.706 300.895 470.108 301.241 469.46 301.46Z" fill="#EBEBEB"/>
<path d="M386.42 200.14C386.787 201.212 386.827 202.37 386.536 203.465C386.245 204.561 385.636 205.545 384.785 206.294C383.934 207.043 382.88 207.523 381.757 207.673C380.633 207.823 379.49 207.637 378.473 207.137C377.455 206.637 376.609 205.847 376.041 204.866C375.472 203.886 375.208 202.758 375.28 201.627C375.353 200.496 375.759 199.412 376.448 198.511C377.137 197.611 378.077 196.936 379.15 196.57C380.588 196.08 382.161 196.181 383.524 196.85C384.887 197.52 385.929 198.703 386.42 200.14Z" fill="#FAFAFA"/>
<path d="M417.92 189.41C418.285 190.481 418.324 191.636 418.032 192.729C417.741 193.822 417.131 194.804 416.282 195.551C415.432 196.297 414.38 196.776 413.259 196.924C412.137 197.073 410.997 196.886 409.982 196.387C408.966 195.888 408.122 195.099 407.555 194.12C406.989 193.141 406.725 192.016 406.797 190.887C406.87 189.758 407.276 188.676 407.963 187.778C408.651 186.879 409.589 186.205 410.66 185.84C411.371 185.598 412.123 185.498 412.873 185.546C413.623 185.594 414.356 185.79 415.03 186.121C415.704 186.453 416.306 186.914 416.802 187.478C417.298 188.042 417.678 188.699 417.92 189.41Z" fill="#FAFAFA"/>
<path d="M396.39 229.43C396.755 230.501 396.794 231.656 396.502 232.749C396.211 233.842 395.602 234.824 394.752 235.571C393.902 236.318 392.85 236.796 391.729 236.945C390.607 237.094 389.467 236.907 388.452 236.407C387.437 235.908 386.592 235.119 386.026 234.14C385.459 233.161 385.195 232.036 385.268 230.907C385.34 229.778 385.746 228.696 386.434 227.798C387.121 226.9 388.06 226.225 389.13 225.86C389.841 225.617 390.594 225.516 391.344 225.563C392.094 225.611 392.827 225.806 393.502 226.138C394.176 226.469 394.779 226.931 395.274 227.496C395.77 228.061 396.149 228.718 396.39 229.43Z" fill="#FAFAFA"/>
<path d="M427.9 218.7C428.265 219.771 428.304 220.926 428.012 222.019C427.721 223.112 427.111 224.094 426.262 224.841C425.412 225.587 424.36 226.066 423.239 226.214C422.117 226.363 420.977 226.176 419.962 225.677C418.946 225.178 418.102 224.389 417.535 223.41C416.969 222.431 416.705 221.306 416.777 220.177C416.85 219.048 417.256 217.966 417.943 217.068C418.631 216.169 419.569 215.495 420.64 215.13C421.351 214.888 422.103 214.788 422.853 214.836C423.603 214.884 424.336 215.08 425.01 215.411C425.684 215.743 426.286 216.204 426.782 216.768C427.278 217.332 427.658 217.989 427.9 218.7Z" fill="#FAFAFA"/>
<path d="M406.37 258.73C406.735 259.801 406.774 260.956 406.482 262.049C406.191 263.142 405.582 264.124 404.732 264.871C403.882 265.618 402.83 266.096 401.709 266.245C400.587 266.394 399.447 266.207 398.432 265.707C397.417 265.208 396.572 264.419 396.006 263.44C395.439 262.461 395.175 261.336 395.248 260.207C395.32 259.078 395.726 257.996 396.414 257.098C397.101 256.2 398.04 255.525 399.11 255.16C399.822 254.918 400.573 254.818 401.323 254.866C402.073 254.915 402.806 255.11 403.48 255.442C404.154 255.773 404.756 256.234 405.252 256.798C405.748 257.363 406.128 258.019 406.37 258.73Z" fill="#FAFAFA"/>
<path d="M437.88 248C438.245 249.071 438.284 250.226 437.992 251.319C437.701 252.412 437.091 253.394 436.242 254.14C435.392 254.887 434.34 255.365 433.218 255.514C432.097 255.663 430.957 255.476 429.942 254.977C428.926 254.478 428.082 253.689 427.515 252.71C426.949 251.731 426.685 250.606 426.757 249.477C426.83 248.348 427.236 247.266 427.923 246.367C428.611 245.469 429.549 244.795 430.62 244.43C431.331 244.187 432.083 244.088 432.833 244.136C433.583 244.184 434.316 244.38 434.99 244.711C435.664 245.043 436.266 245.504 436.762 246.068C437.258 246.632 437.638 247.289 437.88 248Z" fill="#FAFAFA"/>
<path d="M416.35 288C416.715 289.071 416.754 290.226 416.462 291.319C416.171 292.412 415.562 293.394 414.712 294.14C413.862 294.887 412.81 295.365 411.689 295.514C410.567 295.663 409.427 295.476 408.412 294.977C407.397 294.478 406.552 293.689 405.986 292.71C405.419 291.731 405.155 290.606 405.228 289.477C405.3 288.348 405.706 287.266 406.394 286.367C407.081 285.469 408.02 284.795 409.09 284.43C409.801 284.188 410.553 284.088 411.303 284.136C412.053 284.184 412.786 284.38 413.46 284.711C414.134 285.043 414.736 285.504 415.232 286.068C415.728 286.632 416.108 287.289 416.35 288Z" fill="#FAFAFA"/>
<path d="M447.86 277.29C448.225 278.361 448.264 279.516 447.972 280.609C447.681 281.702 447.071 282.684 446.222 283.431C445.372 284.177 444.32 284.655 443.198 284.804C442.077 284.953 440.937 284.766 439.922 284.267C438.906 283.768 438.062 282.979 437.495 282C436.928 281.021 436.665 279.896 436.737 278.767C436.81 277.638 437.216 276.556 437.903 275.657C438.591 274.759 439.529 274.085 440.6 273.72C441.311 273.478 442.063 273.378 442.813 273.426C443.563 273.474 444.295 273.67 444.97 274.001C445.644 274.333 446.246 274.794 446.742 275.358C447.238 275.922 447.618 276.579 447.86 277.29Z" fill="#FAFAFA"/>
<path d="M383.35 197.07C382.74 198.763 381.991 200.402 381.11 201.97C380.368 203.611 379.485 205.183 378.47 206.67C379.08 204.978 379.829 203.339 380.71 201.77C381.45 200.129 382.334 198.556 383.35 197.07Z" fill="#E0E0E0"/>
<path d="M414.2 186.3C413.595 187.996 412.849 189.638 411.97 191.21C411.221 192.846 410.338 194.418 409.33 195.91C409.938 194.215 410.684 192.573 411.56 191C412.312 189.365 413.195 187.793 414.2 186.3Z" fill="#E0E0E0"/>
<path d="M393.62 226.36C393.095 228.129 392.426 229.851 391.62 231.51C390.963 233.242 390.16 234.915 389.22 236.51C389.75 234.743 390.418 233.021 391.22 231.36C391.88 229.63 392.683 227.957 393.62 226.36Z" fill="#E0E0E0"/>
<path d="M424.74 215.561C424.321 217.274 423.752 218.947 423.04 220.561C422.468 222.234 421.756 223.857 420.91 225.411C421.331 223.698 421.9 222.025 422.61 220.411C423.187 218.738 423.899 217.116 424.74 215.561Z" fill="#E0E0E0"/>
<path d="M402.66 255.53C401.608 258.731 400.269 261.83 398.66 264.79C399.712 261.59 401.051 258.49 402.66 255.53Z" fill="#E0E0E0"/>
<path d="M434.93 245.29C433.609 248.446 432.01 251.478 430.15 254.35C430.738 252.743 431.471 251.194 432.34 249.72C433.076 248.172 433.943 246.69 434.93 245.29Z" fill="#E0E0E0"/>
<path d="M413.49 285.24C412.837 286.907 412.044 288.516 411.12 290.05C410.329 291.656 409.402 293.192 408.35 294.64C409.793 291.367 411.513 288.222 413.49 285.24Z" fill="#E0E0E0"/>
<path d="M444.93 273.561C444.407 275.44 443.739 277.275 442.93 279.051C442.265 280.882 441.456 282.657 440.51 284.361C441.033 282.481 441.701 280.646 442.51 278.871C443.173 277.038 443.982 275.263 444.93 273.561Z" fill="#E0E0E0"/>
<path d="M456.42 293C456.42 293.12 446.81 296.51 434.87 300.58C422.93 304.65 413.2 307.851 413.16 307.731C413.12 307.611 422.77 304.22 434.72 300.15C446.67 296.08 456.38 292.86 456.42 293Z" fill="#E0E0E0"/>
<path d="M413.6 175.21C413.6 175.32 403.99 178.72 392.04 182.79C380.09 186.86 370.38 190.06 370.34 189.94C370.3 189.82 379.95 186.43 391.9 182.36C403.85 178.29 413.56 175.09 413.6 175.21Z" fill="#E0E0E0"/>
<path d="M392.59 188.451C392.535 188.465 392.476 188.465 392.42 188.451H392.36L392.8 188.311C392.8 188.381 392.8 188.481 392.64 188.521C392.48 188.561 392.4 188.521 392.37 188.451L392.81 188.311C392.81 188.311 392.81 188.361 392.81 188.371C392.782 188.4 392.748 188.422 392.709 188.436C392.671 188.449 392.631 188.455 392.59 188.451Z" fill="#E0E0E0"/>
<path d="M433.32 300.591C433.2 300.591 424.08 274.171 412.94 241.491C401.8 208.811 392.88 182.271 393 182.231C393.12 182.191 402.24 208.651 413.37 241.341C424.5 274.031 433.44 300.551 433.32 300.591Z" fill="#E0E0E0"/>
<path d="M195.27 473.078L198.7 421.572L299.367 428.276C301.028 428.387 302.578 429.153 303.675 430.407C304.772 431.66 305.326 433.298 305.215 434.96L302.62 473.933C302.509 475.595 301.743 477.145 300.49 478.242C299.236 479.339 297.598 479.893 295.937 479.782L195.27 473.078Z" fill="#F5F5F5"/>
<path d="M226.766 442.658L224.61 475.026L270.888 478.108L273.043 445.74L226.766 442.658Z" fill="#E0E0E0"/>
<path d="M189.329 418.585L185.485 476.297C185.408 477.454 186.284 478.455 187.441 478.532L201.131 479.444C202.288 479.521 203.289 478.645 203.366 477.488L207.209 419.776C207.286 418.619 206.41 417.618 205.253 417.541L191.564 416.629C190.406 416.552 189.406 417.428 189.329 418.585Z" fill="#EBEBEB"/>
<path d="M203.56 474.66C200.556 474.738 197.551 474.631 194.56 474.34C191.572 474.231 188.593 473.94 185.64 473.47C188.644 473.392 191.65 473.499 194.64 473.79C197.628 473.899 200.607 474.189 203.56 474.66Z" fill="#E0E0E0"/>
<path d="M203.89 469.66C200.903 469.743 197.914 469.636 194.94 469.34C191.952 469.231 188.973 468.941 186.02 468.47C189.007 468.4 191.996 468.507 194.97 468.79C197.958 468.899 200.937 469.19 203.89 469.66Z" fill="#E0E0E0"/>
<path d="M204.23 464.67C201.226 464.748 198.221 464.641 195.23 464.35C192.242 464.241 189.263 463.95 186.31 463.48C189.314 463.402 192.319 463.509 195.31 463.8C198.298 463.909 201.277 464.2 204.23 464.67Z" fill="#E0E0E0"/>
<path d="M204.56 459.67C201.556 459.748 198.551 459.641 195.56 459.35C192.572 459.241 189.593 458.95 186.64 458.48C189.644 458.408 192.649 458.515 195.64 458.8C198.628 458.909 201.607 459.199 204.56 459.67Z" fill="#E0E0E0"/>
<path d="M204.89 454.681C201.903 454.757 198.914 454.65 195.94 454.361C192.949 454.251 189.967 453.961 187.01 453.491C190.014 453.412 193.02 453.519 196.01 453.811C198.985 453.921 201.951 454.212 204.89 454.681Z" fill="#E0E0E0"/>
<path d="M205.23 449.68C202.226 449.758 199.221 449.651 196.23 449.36C193.242 449.251 190.263 448.96 187.31 448.49C190.314 448.417 193.319 448.524 196.31 448.81C199.298 448.919 202.277 449.21 205.23 449.68Z" fill="#E0E0E0"/>
<path d="M205.56 444.69C202.556 444.768 199.551 444.662 196.56 444.37C193.572 444.262 190.593 443.971 187.64 443.5C190.644 443.422 193.65 443.529 196.64 443.82C199.628 443.93 202.607 444.22 205.56 444.69Z" fill="#E0E0E0"/>
<path d="M205.89 439.69C202.886 439.768 199.881 439.662 196.89 439.37C193.902 439.261 190.923 438.97 187.97 438.5C190.974 438.428 193.979 438.535 196.97 438.82C199.958 438.929 202.937 439.22 205.89 439.69Z" fill="#E0E0E0"/>
<path d="M206.22 434.7C203.233 434.777 200.244 434.67 197.27 434.38C194.282 434.272 191.303 433.981 188.35 433.51C191.354 433.432 194.36 433.539 197.35 433.83C200.322 433.941 203.284 434.232 206.22 434.7Z" fill="#E0E0E0"/>
<path d="M206.56 429.7C203.556 429.778 200.551 429.671 197.56 429.38C194.572 429.271 191.593 428.981 188.64 428.51C191.644 428.438 194.649 428.545 197.64 428.83C200.628 428.94 203.607 429.23 206.56 429.7Z" fill="#E0E0E0"/>
<path d="M206.89 424.71C203.886 424.788 200.881 424.681 197.89 424.39C194.902 424.281 191.923 423.991 188.97 423.52C191.974 423.442 194.98 423.549 197.97 423.84C200.958 423.949 203.937 424.239 206.89 424.71Z" fill="#E0E0E0"/>
<path d="M207.22 419.71C204.233 419.786 201.244 419.68 198.27 419.39C195.279 419.281 192.297 418.99 189.34 418.52C192.344 418.442 195.35 418.549 198.34 418.84C201.315 418.95 204.281 419.241 207.22 419.71Z" fill="#E0E0E0"/>
<path d="M292.745 469.68L289.841 469.487C289.048 469.434 288.307 469.068 287.783 468.469C287.259 467.87 286.995 467.088 287.047 466.294L287.705 456.416L296.685 457.014L296.028 466.892C296.001 467.293 295.894 467.684 295.714 468.043C295.533 468.402 295.282 468.721 294.976 468.981C294.67 469.241 294.315 469.436 293.932 469.557C293.548 469.677 293.145 469.719 292.745 469.68Z" fill="#EBEBEB"/>
<path d="M290.512 447.18L293.512 447.39C294.308 447.445 295.049 447.815 295.572 448.417C296.095 449.019 296.358 449.804 296.302 450.6L295.609 460.5L286.609 459.87L287.302 449.97C287.358 449.174 287.727 448.433 288.329 447.91C288.931 447.387 289.717 447.124 290.512 447.18Z" fill="#E0E0E0"/>
<path d="M271.687 438.006L270.931 440.828C270.724 441.6 270.219 442.258 269.527 442.658C268.835 443.057 268.013 443.165 267.241 442.958L257.638 440.384L259.978 431.654L269.581 434.228C269.971 434.333 270.335 434.514 270.653 434.762C270.972 435.01 271.237 435.319 271.433 435.671C271.63 436.024 271.754 436.412 271.797 436.813C271.841 437.214 271.804 437.619 271.687 438.006Z" fill="#EBEBEB"/>
<path d="M249.533 434.105L250.286 431.294C250.492 430.526 250.995 429.87 251.684 429.472C252.373 429.075 253.191 428.967 253.96 429.172L263.523 431.733L261.195 440.427L251.632 437.866C251.244 437.762 250.881 437.582 250.564 437.335C250.247 437.088 249.983 436.781 249.787 436.43C249.591 436.079 249.468 435.693 249.424 435.293C249.381 434.894 249.418 434.49 249.533 434.105Z" fill="#E0E0E0"/>
<path d="M299.787 433.401L300.573 436.195C300.788 436.959 300.69 437.777 300.302 438.469C299.914 439.161 299.267 439.67 298.503 439.885L288.999 442.558L286.569 433.918L296.073 431.245C296.458 431.136 296.862 431.106 297.259 431.156C297.657 431.207 298.04 431.336 298.386 431.537C298.733 431.738 299.035 432.007 299.276 432.327C299.516 432.647 299.69 433.013 299.787 433.401Z" fill="#EBEBEB"/>
<path d="M272.554 442.551L271.768 439.758C271.553 438.994 271.651 438.176 272.039 437.484C272.427 436.792 273.074 436.283 273.838 436.068L283.38 433.384L285.81 442.024L276.306 444.697C275.919 444.812 275.513 444.847 275.111 444.8C274.71 444.754 274.322 444.626 273.972 444.426C273.621 444.225 273.315 443.956 273.071 443.634C272.827 443.312 272.651 442.943 272.554 442.551Z" fill="#E0E0E0"/>
<path d="M276.711 469.18L274.016 468.081C273.279 467.78 272.692 467.199 272.384 466.466C272.075 465.732 272.071 464.906 272.371 464.17L276.11 455.003L284.444 458.402L280.705 467.569C280.404 468.306 279.823 468.893 279.09 469.201C278.357 469.51 277.531 469.514 276.794 469.214L276.711 469.18Z" fill="#EBEBEB"/>
<path d="M283.206 445.536L285.9 446.635C286.637 446.936 287.224 447.517 287.533 448.25C287.841 448.984 287.846 449.81 287.545 450.546L283.806 459.713L275.473 456.314L279.212 447.147C279.363 446.775 279.588 446.437 279.872 446.154C280.157 445.87 280.495 445.647 280.868 445.497C281.24 445.347 281.639 445.273 282.041 445.279C282.442 445.286 282.839 445.374 283.206 445.536Z" fill="#E0E0E0"/>
<path d="M416.24 76.0002L423 84.6002C423.123 84.7617 423.179 84.9649 423.154 85.1666C423.13 85.3683 423.028 85.5525 422.87 85.6802L414.18 92.4302C413.534 92.9338 412.795 93.3051 412.006 93.5229C411.217 93.7406 410.392 93.8006 409.579 93.6994C408.766 93.5982 407.982 93.3377 407.27 92.9329C406.558 92.528 405.933 91.9868 405.43 91.3402C404.926 90.6935 404.555 89.9539 404.337 89.1636C404.119 88.3733 404.059 87.5478 404.16 86.7343C404.261 85.9208 404.522 85.1352 404.927 84.4224C405.332 83.7096 405.873 83.0836 406.52 82.5802L415.21 75.8302C415.372 75.7262 415.568 75.6861 415.758 75.7174C415.948 75.7488 416.12 75.8496 416.24 76.0002Z" fill="#EBEBEB"/>
<path d="M421.3 85.8805L414.58 77.2505C414.518 77.1704 414.473 77.079 414.447 76.9813C414.42 76.8837 414.413 76.7818 414.426 76.6815C414.439 76.5813 414.472 76.4845 414.522 76.3968C414.573 76.3092 414.64 76.2323 414.72 76.1705L423.4 69.4205C424.046 68.9169 424.785 68.5456 425.574 68.3278C426.364 68.1101 427.188 68.0501 428.001 68.1513C428.814 68.2525 429.598 68.513 430.31 68.9178C431.022 69.3227 431.647 69.8639 432.15 70.5105C432.654 71.1572 433.025 71.8968 433.243 72.6871C433.461 73.4774 433.521 74.3029 433.42 75.1164C433.319 75.9299 433.058 76.7155 432.653 77.4283C432.248 78.1411 431.707 78.7671 431.06 79.2705L422.38 86.0005C422.221 86.1274 422.018 86.186 421.815 86.1636C421.613 86.1411 421.428 86.0393 421.3 85.8805Z" fill="#E0E0E0"/>
<path d="M31.3202 280.76L41.6102 284.5C41.8036 284.572 41.9605 284.718 42.0467 284.905C42.1329 285.092 42.1414 285.306 42.0702 285.5L38.3102 295.83C38.031 296.601 37.6025 297.31 37.0492 297.915C36.4959 298.521 35.8286 299.011 35.0856 299.359C34.3426 299.706 33.5384 299.903 32.719 299.94C31.8996 299.976 31.081 299.85 30.3102 299.57C28.7543 299.004 27.4866 297.844 26.7854 296.344C26.0842 294.844 26.0068 293.127 26.5702 291.57L30.3302 281.24C30.3628 281.143 30.4144 281.053 30.4821 280.976C30.5498 280.899 30.6321 280.837 30.7243 280.792C30.8165 280.747 30.9167 280.721 31.0191 280.716C31.1214 280.71 31.2238 280.725 31.3202 280.76Z" fill="#EBEBEB"/>
<path d="M40.89 286.47L30.61 282.73C30.5127 282.697 30.4231 282.644 30.3467 282.575C30.2703 282.506 30.2088 282.422 30.1657 282.329C30.1227 282.235 30.0992 282.134 30.0965 282.031C30.0938 281.928 30.112 281.826 30.15 281.73L33.91 271.39C34.1891 270.619 34.6177 269.91 35.1712 269.305C35.7247 268.7 36.3922 268.21 37.1355 267.864C37.8788 267.517 38.6831 267.321 39.5024 267.286C40.3218 267.251 41.1399 267.378 41.91 267.66C42.6812 267.939 43.3896 268.368 43.9947 268.921C44.5998 269.475 45.0897 270.142 45.4362 270.886C45.7828 271.629 45.9792 272.433 46.0141 273.252C46.0491 274.072 45.922 274.89 45.64 275.66L41.88 286C41.81 286.193 41.6668 286.35 41.4815 286.438C41.2962 286.526 41.0837 286.538 40.89 286.47Z" fill="#E0E0E0"/>
<path d="M463 478.94C463 479.09 367.16 479.2 249 479.2C130.84 479.2 35 479.09 35 478.94C35 478.79 130.82 478.68 249.05 478.68C367.28 478.68 463 478.8 463 478.94Z" fill="#263238"/>
<path d="M381.29 37.1699H140.32C134.742 37.1699 130.22 41.6918 130.22 47.2699V372.02C130.22 377.598 134.742 382.12 140.32 382.12H381.29C386.868 382.12 391.39 377.598 391.39 372.02V47.2699C391.39 41.6918 386.868 37.1699 381.29 37.1699Z" fill="#455A64"/>
<path d="M373.89 53.4697H147.7V358.42H373.89V53.4697Z" fill="white"/>
<path d="M373.9 358.42C373.9 356.34 373.8 234.03 373.66 53.4199L373.9 53.6499H147.73L147.99 53.3899C147.99 167.12 147.99 272.5 147.99 358.39L147.77 358.17L373.97 358.39L147.77 358.6H147.56V358.39C147.56 272.55 147.56 167.17 147.51 53.3899V53.1299H147.8H373.97H374.2V53.3699C374 234 373.9 356.34 373.9 358.42Z" fill="#263238"/>
<path d="M195.32 104.65L190.05 96.7197H184.22V104.65H177.89V76.1897H189.73C191.904 76.1381 194.062 76.5684 196.05 77.4497C197.742 78.2038 199.174 79.4382 200.17 80.9997C201.17 82.6529 201.673 84.5586 201.62 86.4897C201.681 88.4308 201.17 90.347 200.15 91.9997C199.145 93.5527 197.7 94.7712 196 95.4997L202.14 104.65H195.32ZM193.72 82.8397C192.476 81.9021 190.934 81.4474 189.38 81.5597H184.22V91.4797H189.38C190.938 91.5872 192.482 91.1213 193.72 90.1697C194.676 89.1892 195.211 87.8741 195.211 86.5047C195.211 85.1353 194.676 83.8202 193.72 82.8397Z" fill="#28A7B8"/>
<path d="M209.17 124.319L202.91 114.999L196.76 124.359H189.87L199.47 110.649L190.35 97.3994H197.17L203.17 106.139L209 97.3594H215.48L206.48 110.359L216.15 124.299L209.17 124.319Z" fill="#28A7B8"/>
<path d="M295.35 82.9893H256.53V92.5993H295.35V82.9893Z" fill="#E0E0E0"/>
<path d="M352.28 89.0598C352.28 89.2098 341.66 89.3198 328.56 89.3198C315.46 89.3198 304.85 89.2098 304.85 89.0598C304.85 88.9098 315.46 88.7998 328.56 88.7998C341.66 88.7998 352.28 88.9198 352.28 89.0598Z" fill="#263238"/>
<path d="M351.39 100.589C351.39 100.729 330.15 100.849 303.96 100.849C277.77 100.849 256.53 100.729 256.53 100.589C256.53 100.449 277.76 100.319 303.96 100.319C330.16 100.319 351.39 100.439 351.39 100.589Z" fill="#263238"/>
<path d="M351.39 111.879C351.39 112.019 330.15 112.139 303.96 112.139C277.77 112.139 256.53 112.019 256.53 111.879C256.53 111.739 277.76 111.619 303.96 111.619C330.16 111.619 351.39 111.729 351.39 111.879Z" fill="#263238"/>
<path d="M366.19 141.999C366.19 142.139 319 142.259 260.81 142.259C202.62 142.259 155.42 142.139 155.42 141.999C155.42 141.859 202.59 141.729 260.81 141.729C319.03 141.729 366.19 141.829 366.19 141.999Z" fill="#263238"/>
<path d="M366.19 312.459C366.19 312.599 319 312.719 260.81 312.719C202.62 312.719 155.42 312.599 155.42 312.459C155.42 312.319 202.59 312.199 260.81 312.199C319.03 312.199 366.19 312.309 366.19 312.459Z" fill="#263238"/>
<path d="M237.81 159.229H172.78V171.429H237.81V159.229Z" fill="#E0E0E0"/>
<path d="M200.93 329.859H172.78V342.059H200.93V329.859Z" fill="#E0E0E0"/>
<path d="M295.45 329.859H267.3V342.059H295.45V329.859Z" fill="#E0E0E0"/>
<path d="M248.11 338.31C248.11 338.46 239.32 338.57 228.48 338.57C217.64 338.57 208.84 338.46 208.84 338.31C208.84 338.16 217.63 338.05 228.48 338.05C239.33 338.05 248.11 338.17 248.11 338.31Z" fill="#263238"/>
<path d="M349.19 338.31C349.19 338.46 340.4 338.57 329.56 338.57C318.72 338.57 309.92 338.46 309.92 338.31C309.92 338.16 318.71 338.05 329.56 338.05C340.41 338.05 349.19 338.17 349.19 338.31Z" fill="#263238"/>
<path d="M346.86 189.8C346.86 189.94 308.33 190.06 260.86 190.06C213.39 190.06 174.86 189.94 174.86 189.8C174.86 189.66 213.37 189.54 260.86 189.54C308.35 189.54 346.86 189.65 346.86 189.8Z" fill="#263238"/>
<path d="M350.2 203.72C350.2 203.87 310.93 203.98 262.5 203.98C214.07 203.98 174.79 203.87 174.79 203.72C174.79 203.57 214.05 203.46 262.5 203.46C310.95 203.46 350.2 203.58 350.2 203.72Z" fill="#263238"/>
<path d="M259.82 217.65C259.82 217.79 240.33 217.91 216.3 217.91C192.27 217.91 172.78 217.79 172.78 217.65C172.78 217.51 192.26 217.39 216.3 217.39C240.34 217.39 259.82 217.5 259.82 217.65Z" fill="#263238"/>
<path d="M348.91 268.15C348.91 268.15 348.72 268.23 348.33 268.35L346.63 268.87C344.434 269.523 342.199 270.044 339.94 270.43C338.309 270.717 336.657 270.874 335 270.9C333.019 270.939 331.042 270.693 329.13 270.17C326.928 269.54 324.9 268.414 323.2 266.88C321.284 265.129 320.024 262.775 319.63 260.21C319.425 258.824 319.594 257.408 320.12 256.11C320.71 254.759 321.675 253.607 322.9 252.79C323.534 252.351 324.248 252.042 325.002 251.883C325.755 251.723 326.533 251.715 327.29 251.86C328.057 252.048 328.777 252.388 329.41 252.86C330.028 253.376 330.543 254.004 330.93 254.71C331.666 256.172 332.033 257.793 332 259.43C332.007 261.105 331.702 262.766 331.1 264.33C329.795 267.566 327.643 270.391 324.87 272.51C321.966 274.767 318.516 276.216 314.87 276.71C313.001 276.976 311.102 276.953 309.24 276.64C308.295 276.487 307.362 276.263 306.45 275.97C305.539 275.634 304.65 275.24 303.79 274.79C302.074 273.832 300.546 272.572 299.28 271.07C297.971 269.536 297.055 267.706 296.61 265.74C296.122 263.719 296.374 261.59 297.32 259.74C298.26 257.867 299.818 256.376 301.73 255.52C302.698 255.081 303.761 254.896 304.82 254.98C305.87 255.084 306.874 255.463 307.73 256.08C309.356 257.369 310.478 259.188 310.9 261.22C311.36 263.165 311.468 265.176 311.22 267.16C311.025 269.102 310.591 271.013 309.93 272.85C308.703 276.474 306.536 279.707 303.65 282.22C300.845 284.626 297.337 286.061 293.65 286.31C290.244 286.656 286.826 285.779 284.008 283.835C281.189 281.891 279.155 279.007 278.27 275.7C277.365 272.747 277.485 269.575 278.61 266.7C279.14 265.328 280.048 264.134 281.23 263.26C281.821 262.827 282.507 262.543 283.23 262.43C283.941 262.324 284.667 262.462 285.29 262.82C285.861 263.191 286.338 263.69 286.685 264.276C287.032 264.862 287.239 265.52 287.29 266.2C287.457 267.442 287.407 268.704 287.14 269.93C286.745 272.164 286.073 274.341 285.14 276.41C284.332 278.206 283.326 279.906 282.14 281.48C281.15 282.812 280.031 284.045 278.8 285.16C277.122 286.726 275.23 288.045 273.18 289.08C272.655 289.36 272.114 289.61 271.56 289.83L270.99 290.05L271.54 289.78C271.9 289.6 272.46 289.38 273.14 288.99C275.155 287.911 277.015 286.565 278.67 284.99C281.296 282.515 283.416 279.553 284.91 276.27C285.844 274.225 286.516 272.072 286.91 269.86C287.154 268.665 287.198 267.438 287.04 266.23C286.992 265.607 286.803 265.004 286.487 264.466C286.172 263.927 285.739 263.467 285.22 263.12C284.666 262.803 284.021 262.683 283.39 262.78C282.741 262.896 282.128 263.163 281.6 263.56C280.479 264.391 279.618 265.525 279.12 266.83C278.037 269.626 277.935 272.707 278.83 275.57C279.699 278.77 281.676 281.557 284.408 283.436C287.141 285.315 290.451 286.163 293.75 285.83C297.326 285.572 300.724 284.169 303.44 281.83C306.257 279.374 308.37 276.212 309.56 272.67C310.203 270.867 310.626 268.993 310.82 267.09C311.059 265.166 310.95 263.215 310.5 261.33C310.104 259.415 309.041 257.703 307.5 256.5C306.714 255.933 305.79 255.587 304.825 255.497C303.859 255.408 302.888 255.578 302.01 255.99C300.204 256.804 298.735 258.217 297.85 259.99C296.963 261.726 296.729 263.724 297.19 265.62C297.673 267.475 298.538 269.208 299.73 270.71C300.921 272.212 302.413 273.448 304.11 274.34C304.942 274.773 305.801 275.153 306.68 275.48C309.32 276.34 312.12 276.589 314.87 276.21C316.655 275.961 318.4 275.48 320.06 274.78C321.683 274.087 323.211 273.194 324.61 272.12C327.322 270.048 329.425 267.285 330.7 264.12C331.286 262.611 331.587 261.008 331.59 259.39C331.625 257.828 331.282 256.28 330.59 254.88C330.229 254.225 329.755 253.64 329.19 253.15C328.614 252.688 327.951 252.348 327.24 252.15C326.537 252.015 325.814 252.021 325.114 252.169C324.413 252.317 323.749 252.602 323.16 253.01C321.996 253.775 321.079 254.863 320.52 256.14C320.012 257.376 319.843 258.726 320.03 260.05C320.41 262.534 321.623 264.815 323.47 266.52C325.128 268.029 327.108 269.14 329.26 269.77C331.141 270.298 333.087 270.554 335.04 270.53C336.685 270.519 338.327 270.378 339.95 270.11C342.204 269.74 344.437 269.253 346.64 268.65L348.36 268.18L348.91 268.15Z" fill="#263238"/>
<path d="M298.54 34.2393H223.06V63.0993H298.54V34.2393Z" fill="#E0E0E0"/>
<path d="M298.54 63.0896C298.54 63.0896 298.54 62.9096 298.54 62.5696C298.54 62.2296 298.54 61.7196 298.54 61.0696C298.54 59.7396 298.54 57.8196 298.54 55.3396C298.54 50.3396 298.48 43.1696 298.44 34.2396L298.62 34.4196L223.15 34.4996L223.41 34.2396C223.41 44.3196 223.41 54.0696 223.41 63.0896L223.16 62.8396L277.16 62.9596L292.89 63.0296H297.12H298.22H298.6C298.484 63.0395 298.367 63.0395 298.25 63.0296H297.18H293.01L277.33 63.0996L223.12 63.2096H222.87V62.9596C222.87 53.9596 222.87 44.1896 222.87 34.1096L223.13 33.8496L298.6 33.9296H298.78V34.1096C298.78 43.1096 298.71 50.3096 298.68 55.3196C298.68 57.7796 298.68 59.6896 298.68 61.0096C298.68 61.6396 298.68 62.1296 298.68 62.4796C298.68 62.8296 298.54 63.0896 298.54 63.0896Z" fill="#263238"/>
<path d="M388.94 478.5H340.06C339.011 478.5 338.004 478.089 337.256 477.354C336.508 476.618 336.078 475.619 336.06 474.57L334.88 342.74H391.7L392.88 474.49C392.883 475.543 392.471 476.554 391.733 477.304C390.996 478.055 389.992 478.484 388.94 478.5Z" fill="#28A7B8"/>
<g opacity="0.3">
<path d="M381.75 372V473.49C381.75 473.49 389.75 476.15 390.14 469.15C390.53 462.15 390.32 371.98 390.32 371.98L381.75 372Z" fill="white"/>
</g>
<path d="M386.34 336.05H340.34C339.544 336.05 338.781 336.366 338.219 336.928C337.656 337.491 337.34 338.254 337.34 339.05V342H389.34V339C389.327 338.213 389.005 337.463 388.444 336.911C387.882 336.359 387.127 336.05 386.34 336.05Z" fill="#FAFAFA"/>
<path d="M386.34 336.05C386.506 336.026 386.674 336.026 386.84 336.05C387.333 336.112 387.802 336.301 388.2 336.6C388.53 336.844 388.807 337.153 389.015 337.507C389.223 337.861 389.357 338.253 389.41 338.66C389.41 339.66 389.41 340.66 389.41 341.94V342.06H389.28C379.75 342.13 361.34 342.19 340.28 342.19H337.03V339.14C337.014 338.643 337.112 338.15 337.314 337.696C337.517 337.242 337.82 336.84 338.2 336.52C338.581 336.203 339.029 335.977 339.51 335.86C339.972 335.777 340.441 335.747 340.91 335.77H343.57H353.68L370.68 335.83L382.11 335.91L370.68 335.99L353.68 336.05H343.57H340.91C340.482 336.025 340.052 336.052 339.63 336.13C339.228 336.231 338.852 336.419 338.53 336.68C337.09 337.77 337.67 339.87 337.53 341.68L337.27 341.42H340.27C361.36 341.42 379.77 341.47 389.27 341.55L389.14 341.68C389.14 340.45 389.14 339.34 389.14 338.43C389.102 338.041 388.985 337.663 388.798 337.319C388.611 336.976 388.356 336.673 388.05 336.43C387.523 336.156 386.933 336.025 386.34 336.05Z" fill="#263238"/>
<path d="M395.07 340.57H331.56C330.102 340.57 328.92 341.752 328.92 343.21V369.34C328.92 370.798 330.102 371.98 331.56 371.98H395.07C396.528 371.98 397.71 370.798 397.71 369.34V343.21C397.71 341.752 396.528 340.57 395.07 340.57Z" fill="#FAFAFA"/>
<path d="M395.07 372C395.07 372 395.25 372 395.57 371.92C396.05 371.82 396.49 371.584 396.84 371.24C398.01 370.36 397.54 368.24 397.61 365.81C397.61 360.81 397.56 353.66 397.53 344.81C397.53 344.26 397.53 343.7 397.53 343.13C397.513 342.596 397.319 342.083 396.98 341.67C396.626 341.25 396.145 340.955 395.61 340.83C395.032 340.767 394.45 340.751 393.87 340.78H386.33H369.69H331.58C331.198 340.777 330.822 340.867 330.482 341.041C330.143 341.215 329.851 341.469 329.63 341.78C329.416 342.076 329.275 342.419 329.22 342.78C329.199 343.186 329.199 343.594 329.22 344V358.7C329.22 361.88 329.22 365.01 329.22 368.08V369.23C329.221 369.575 329.296 369.916 329.44 370.23C329.582 370.542 329.79 370.819 330.049 371.043C330.307 371.267 330.611 371.433 330.94 371.53C331.281 371.625 331.637 371.659 331.99 371.63H335.31L366.44 371.68L387.44 371.77H393.14L387.44 371.82L366.44 371.9L335.31 371.96H331.99C331.593 371.988 331.193 371.948 330.81 371.84C330.413 371.725 330.045 371.527 329.731 371.258C329.417 370.989 329.164 370.655 328.99 370.28C328.82 369.899 328.732 369.487 328.73 369.07V367.92C328.73 364.853 328.73 361.727 328.73 358.54C328.73 355.35 328.73 352.1 328.73 348.81V343.81C328.73 343.38 328.73 342.99 328.73 342.52C328.798 342.06 328.973 341.621 329.24 341.24C329.508 340.861 329.863 340.553 330.276 340.34C330.688 340.128 331.146 340.018 331.61 340.02H369.72H386.36H393.9C394.511 339.989 395.123 340.013 395.73 340.09C396.35 340.247 396.903 340.597 397.31 341.09C397.697 341.574 397.918 342.17 397.94 342.79V344.48C397.94 353.32 397.87 360.48 397.85 365.48C397.85 366.71 397.85 367.81 397.85 368.77C397.88 369.182 397.817 369.596 397.665 369.981C397.512 370.365 397.275 370.71 396.97 370.99C396.602 371.335 396.138 371.561 395.64 371.64C395.477 371.798 395.283 371.921 395.07 372Z" fill="#263238"/>
<path d="M332.92 371.46C332.77 371.46 332.66 364.77 332.66 356.53C332.66 348.29 332.77 341.59 332.92 341.59C333.07 341.59 333.18 348.28 333.18 356.53C333.18 364.78 333.06 371.46 332.92 371.46Z" fill="#263238"/>
<path d="M338.12 371.46C337.97 371.46 337.86 364.77 337.86 356.53C337.86 348.29 337.97 341.59 338.12 341.59C338.27 341.59 338.38 348.28 338.38 356.53C338.38 364.78 338.26 371.46 338.12 371.46Z" fill="#263238"/>
<path d="M343.32 371.46C343.18 371.46 343.06 364.77 343.06 356.53C343.06 348.29 343.18 341.59 343.32 341.59C343.46 341.59 343.58 348.28 343.58 356.53C343.58 364.78 343.46 371.46 343.32 371.46Z" fill="#263238"/>
<path d="M348.52 371.46C348.38 371.46 348.26 364.77 348.26 356.53C348.26 348.29 348.38 341.59 348.52 341.59C348.66 341.59 348.78 348.28 348.78 356.53C348.78 364.78 348.67 371.46 348.52 371.46Z" fill="#263238"/>
<path d="M353.73 371.46C353.58 371.46 353.47 364.77 353.47 356.53C353.47 348.29 353.58 341.59 353.73 341.59C353.88 341.59 353.99 348.28 353.99 356.53C353.99 364.78 353.87 371.46 353.73 371.46Z" fill="#263238"/>
<path d="M358.93 371.46C358.78 371.46 358.67 364.77 358.67 356.53C358.67 348.29 358.78 341.59 358.93 341.59C359.08 341.59 359.19 348.28 359.19 356.53C359.19 364.78 359.07 371.46 358.93 371.46Z" fill="#263238"/>
<path d="M364.13 371.46C363.99 371.46 363.87 364.77 363.87 356.53C363.87 348.29 363.99 341.59 364.13 341.59C364.27 341.59 364.39 348.28 364.39 356.53C364.39 364.78 364.27 371.46 364.13 371.46Z" fill="#263238"/>
<path d="M369.33 371.46C369.19 371.46 369.07 364.77 369.07 356.53C369.07 348.29 369.19 341.59 369.33 341.59C369.47 341.59 369.59 348.28 369.59 356.53C369.59 364.78 369.48 371.46 369.33 371.46Z" fill="#263238"/>
<path d="M374.53 371.46C374.39 371.46 374.27 364.77 374.27 356.53C374.27 348.29 374.39 341.59 374.53 341.59C374.67 341.59 374.8 348.28 374.8 356.53C374.8 364.78 374.68 371.46 374.53 371.46Z" fill="#263238"/>
<path d="M379.74 371.46C379.59 371.46 379.48 364.77 379.48 356.53C379.48 348.29 379.59 341.59 379.74 341.59C379.89 341.59 380 348.28 380 356.53C380 364.78 379.88 371.46 379.74 371.46Z" fill="#263238"/>
<path d="M384.94 371.46C384.8 371.46 384.68 364.77 384.68 356.53C384.68 348.29 384.8 341.59 384.94 341.59C385.08 341.59 385.2 348.28 385.2 356.53C385.2 364.78 385.08 371.46 384.94 371.46Z" fill="#263238"/>
<path d="M390.14 371.46C390 371.46 389.88 364.77 389.88 356.53C389.88 348.29 390 341.59 390.14 341.59C390.28 341.59 390.4 348.28 390.4 356.53C390.4 364.78 390.29 371.46 390.14 371.46Z" fill="#263238"/>
<path d="M395.34 371.46C395.2 371.46 395.08 364.77 395.08 356.53C395.08 348.29 395.2 341.59 395.34 341.59C395.48 341.59 395.6 348.28 395.6 356.53C395.6 364.78 395.49 371.46 395.34 371.46Z" fill="#263238"/>
<path d="M388.55 395.641H339.36V435.031H388.55V395.641Z" fill="white"/>
<path d="M347.81 408.18L346.66 406.52H345.4V408.18H344V402.24H346.57C347.038 402.229 347.502 402.321 347.93 402.51C348.297 402.662 348.61 402.92 348.83 403.25C349.044 403.595 349.152 403.995 349.14 404.4C349.151 404.804 349.039 405.201 348.82 405.54C348.599 405.867 348.285 406.121 347.92 406.27L349.25 408.18H347.81ZM347.46 403.63C347.188 403.433 346.855 403.338 346.52 403.36H345.4V405.43H346.52C346.855 405.453 347.188 405.357 347.46 405.16C347.562 405.061 347.643 404.942 347.698 404.81C347.753 404.679 347.782 404.538 347.782 404.395C347.782 404.253 347.753 404.112 347.698 403.98C347.643 403.849 347.562 403.73 347.46 403.63Z" fill="#263238"/>
<path d="M350.81 412.28L349.45 410.33L348.12 412.28H346.63L348.71 409.42L346.71 406.66H348.19L349.48 408.48L350.75 406.66H352.16L350.16 409.37L352.25 412.28H350.81Z" fill="#263238"/>
<path d="M384.94 402.23H356.85V406.5H384.94V402.23Z" fill="#E0E0E0"/>
<path d="M381.75 417.1C381.75 417.24 373.55 417.36 363.43 417.36C353.31 417.36 345.11 417.24 345.11 417.1C345.11 416.96 353.31 416.84 363.43 416.84C373.55 416.84 381.75 417 381.75 417.1Z" fill="#263238"/>
<path d="M381.75 421.54C381.75 421.69 373.55 421.8 363.43 421.8C353.31 421.8 345.11 421.69 345.11 421.54C345.11 421.39 353.31 421.28 363.43 421.28C373.55 421.28 381.75 421.4 381.75 421.54Z" fill="#263238"/>
<path d="M361.44 427.11H342.46V430.77H361.44V427.11Z" fill="#E0E0E0"/>
<path d="M387.43 433.811C387.43 433.811 387.43 433.571 387.43 433.111C387.43 432.651 387.43 431.971 387.43 431.111C387.43 429.341 387.43 426.791 387.38 423.541C387.38 417.021 387.31 407.741 387.27 396.541L387.48 396.761H340.33C340.27 396.811 340.82 396.271 340.59 396.511V406.431C340.59 409.691 340.59 412.891 340.59 416.011C340.59 422.261 340.59 428.221 340.59 433.771L340.36 433.541L374.36 433.661L384.02 433.721H386.6H387.5C387.5 433.721 387.44 433.721 387.29 433.721H386.65H384.12L374.51 433.781L340.35 433.901H340.12V433.661C340.12 428.111 340.12 422.151 340.12 415.901C340.12 412.781 340.12 409.581 340.12 406.321V396.401C339.89 396.621 340.44 396.071 340.38 396.131H387.53H387.75V396.351C387.75 407.601 387.66 416.941 387.64 423.491C387.64 426.711 387.59 429.251 387.58 431.011C387.58 431.851 387.58 432.501 387.58 433.011C387.58 433.521 387.43 433.811 387.43 433.811Z" fill="#263238"/>
<path d="M338.12 467.75C337.97 467.75 337.86 447.19 337.86 421.83C337.86 396.47 337.97 375.91 338.12 375.91C338.27 375.91 338.38 396.47 338.38 421.83C338.38 447.19 338.26 467.75 338.12 467.75Z" fill="white"/>
<path d="M388.6 476.361C388.6 476.501 377.87 476.621 364.6 476.621C351.33 476.621 340.6 476.501 340.6 476.361C340.6 476.221 351.33 476.101 364.6 476.101C377.87 476.101 388.6 476.221 388.6 476.361Z" fill="#263238"/>
<path d="M437.35 478.44H397.75C396.901 478.44 396.086 478.105 395.483 477.507C394.88 476.91 394.538 476.099 394.53 475.25L393.53 368.46H439.53L440.48 475.19C440.491 476.035 440.168 476.849 439.582 477.458C438.996 478.066 438.194 478.419 437.35 478.44Z" fill="#455A64"/>
<g opacity="0.3">
<path d="M431.52 392.141V474.381C431.52 474.381 438 476.531 438.32 470.861C438.64 465.191 438.46 392.141 438.46 392.141H431.52Z" fill="white"/>
</g>
<path d="M434.67 363H398.5C397.704 363 396.941 363.316 396.379 363.879C395.816 364.441 395.5 365.204 395.5 366V367.79H437.64V366C437.64 365.21 437.328 364.451 436.772 363.889C436.216 363.327 435.46 363.008 434.67 363Z" fill="#FAFAFA"/>
<path d="M434.67 363C434.812 362.98 434.957 362.98 435.1 363C435.526 363.036 435.937 363.173 436.3 363.4C436.902 363.766 437.36 364.327 437.6 364.99C437.737 365.412 437.798 365.856 437.78 366.3C437.78 366.77 437.78 367.3 437.78 367.78V368H437.65C429.86 368.08 415.23 368.13 398.5 368.13H395.24V367.87C395.24 367.11 395.24 366.42 395.24 365.62C395.354 364.835 395.752 364.119 396.358 363.606C396.964 363.094 397.737 362.822 398.53 362.84H400.65H408.7L422.24 362.89L431.31 362.97L433.77 363.02C434.054 363.015 434.338 363.031 434.62 363.07C434.337 363.091 434.053 363.091 433.77 363.07L431.31 363.12L422.24 363.2L408.7 363.26H398.58C397.917 363.243 397.271 363.467 396.76 363.89C396.237 364.318 395.898 364.93 395.81 365.6C395.75 366.26 395.81 367.05 395.81 367.78L395.55 367.52H398.55C415.28 367.52 429.91 367.57 437.7 367.65L437.57 367.78C437.57 367.26 437.57 366.78 437.57 366.3C437.603 365.881 437.555 365.46 437.43 365.06C437.227 364.428 436.814 363.885 436.26 363.52C435.778 363.224 435.233 363.045 434.67 363Z" fill="#263238"/>
<path d="M441.82 366.7H391.37C389.912 366.7 388.73 367.882 388.73 369.34V389.51C388.73 390.968 389.912 392.15 391.37 392.15H441.82C443.278 392.15 444.46 390.968 444.46 389.51V369.34C444.46 367.882 443.278 366.7 441.82 366.7Z" fill="#FAFAFA"/>
<path d="M441.81 392.14C442.34 392.101 442.851 391.922 443.29 391.62C443.797 391.244 444.152 390.697 444.29 390.08C444.353 389.677 444.37 389.268 444.34 388.86C444.34 388.42 444.34 387.94 444.34 387.45C444.34 383.45 444.29 377.66 444.26 370.54C444.26 370.1 444.26 369.63 444.26 369.19C444.233 368.761 444.092 368.346 443.85 367.99C443.601 367.619 443.258 367.322 442.855 367.131C442.452 366.939 442.004 366.859 441.56 366.9H435.48H422.08H391.37C390.753 366.903 390.161 367.143 389.717 367.572C389.274 368 389.013 368.584 388.99 369.2C388.99 370.54 388.99 371.87 388.99 373.2V381.04C388.99 383.614 388.99 386.134 388.99 388.6C388.935 389.183 388.993 389.77 389.16 390.33C389.371 390.845 389.747 391.274 390.23 391.55C390.734 391.801 391.299 391.905 391.86 391.85H393.64L418.72 391.91L435.63 391.99H440.23L435.63 392.04L418.72 392.12L393.64 392.18H391.86C391.235 392.292 390.592 392.229 390 392C389.418 391.668 388.963 391.151 388.71 390.53C388.586 390.211 388.519 389.873 388.51 389.53V388.6C388.51 386.134 388.51 383.614 388.51 381.04V369.24C388.538 368.49 388.856 367.779 389.396 367.257C389.937 366.735 390.658 366.442 391.41 366.44H422.12H435.52H441.6C442.11 366.414 442.619 366.519 443.077 366.745C443.536 366.971 443.929 367.31 444.22 367.73C444.491 368.146 444.646 368.625 444.67 369.12C444.67 369.6 444.67 370.04 444.67 370.49C444.67 377.61 444.6 383.38 444.58 387.4C444.58 387.89 444.58 388.4 444.58 388.81C444.6 389.229 444.573 389.648 444.5 390.06C444.344 390.714 443.948 391.286 443.39 391.66C443.053 391.89 442.665 392.034 442.26 392.08C442.115 392.127 441.962 392.147 441.81 392.14Z" fill="#263238"/>
<path d="M392 391.72C391.86 391.72 391.74 386.31 391.74 379.63C391.74 372.95 391.86 367.53 392 367.53C392.14 367.53 392.26 372.94 392.26 379.63C392.26 386.32 392.1 391.72 392 391.72Z" fill="#263238"/>
<path d="M396.17 391.72C396.03 391.72 395.91 386.31 395.91 379.63C395.91 372.95 396.03 367.53 396.17 367.53C396.31 367.53 396.43 372.94 396.43 379.63C396.43 386.32 396.32 391.72 396.17 391.72Z" fill="#263238"/>
<path d="M400.39 391.72C400.24 391.72 400.13 386.31 400.13 379.63C400.13 372.95 400.24 367.53 400.39 367.53C400.54 367.53 400.65 372.94 400.65 379.63C400.65 386.32 400.53 391.72 400.39 391.72Z" fill="#263238"/>
<path d="M404.6 391.72C404.46 391.72 404.34 386.31 404.34 379.63C404.34 372.95 404.46 367.53 404.6 367.53C404.74 367.53 404.86 372.94 404.86 379.63C404.86 386.32 404.75 391.72 404.6 391.72Z" fill="#263238"/>
<path d="M408.82 391.72C408.67 391.72 408.56 386.31 408.56 379.63C408.56 372.95 408.67 367.53 408.82 367.53C408.97 367.53 409.08 372.94 409.08 379.63C409.08 386.32 409 391.72 408.82 391.72Z" fill="#263238"/>
<path d="M413 391.72C412.86 391.72 412.74 386.31 412.74 379.63C412.74 372.95 412.86 367.53 413 367.53C413.14 367.53 413.26 372.94 413.26 379.63C413.26 386.32 413.18 391.72 413 391.72Z" fill="#263238"/>
<path d="M417.25 391.72C417.1 391.72 416.99 386.31 416.99 379.63C416.99 372.95 417.1 367.53 417.25 367.53C417.4 367.53 417.51 372.94 417.51 379.63C417.51 386.32 417.39 391.72 417.25 391.72Z" fill="#263238"/>
<path d="M421.46 391.72C421.32 391.72 421.2 386.31 421.2 379.63C421.2 372.95 421.32 367.53 421.46 367.53C421.6 367.53 421.72 372.94 421.72 379.63C421.72 386.32 421.6 391.72 421.46 391.72Z" fill="#263238"/>
<path d="M425.68 391.72C425.53 391.72 425.41 386.31 425.41 379.63C425.41 372.95 425.53 367.53 425.68 367.53C425.83 367.53 425.94 372.94 425.94 379.63C425.94 386.32 425.82 391.72 425.68 391.72Z" fill="#263238"/>
<path d="M429.89 391.72C429.75 391.72 429.63 386.31 429.63 379.63C429.63 372.95 429.75 367.53 429.89 367.53C430.03 367.53 430.15 372.94 430.15 379.63C430.15 386.32 430 391.72 429.89 391.72Z" fill="#263238"/>
<path d="M434.1 391.72C433.96 391.72 433.84 386.31 433.84 379.63C433.84 372.95 433.96 367.53 434.1 367.53C434.24 367.53 434.36 372.94 434.36 379.63C434.36 386.32 434.25 391.72 434.1 391.72Z" fill="#263238"/>
<path d="M438.32 391.72C438.17 391.72 438.06 386.31 438.06 379.63C438.06 372.95 438.17 367.53 438.32 367.53C438.47 367.53 438.58 372.94 438.58 379.63C438.58 386.32 438.46 391.72 438.32 391.72Z" fill="#263238"/>
<path d="M442.53 391.72C442.39 391.72 442.27 386.31 442.27 379.63C442.27 372.95 442.39 367.53 442.53 367.53C442.67 367.53 442.79 372.94 442.79 379.63C442.79 386.32 442.68 391.72 442.53 391.72Z" fill="#263238"/>
<path d="M437.03 411.311H397.18V443.221H437.03V411.311Z" fill="white"/>
<path d="M404 421.47L403.08 420.13H402.08V421.47H401V416.66H403C403.381 416.65 403.759 416.722 404.11 416.87C404.406 416.997 404.656 417.209 404.83 417.48C405 417.759 405.089 418.079 405.089 418.405C405.089 418.731 405 419.051 404.83 419.33C404.651 419.595 404.397 419.801 404.1 419.92L405.18 421.47H404ZM403.72 417.78C403.498 417.626 403.23 417.552 402.96 417.57H402.05V419.24H403C403.272 419.261 403.541 419.183 403.76 419.02C403.849 418.945 403.919 418.849 403.964 418.741C404.01 418.634 404.029 418.517 404.02 418.4C404.025 418.282 404.003 418.164 403.954 418.056C403.906 417.949 403.832 417.854 403.74 417.78H403.72Z" fill="#263238"/>
<path d="M406.46 424.79L405.36 423.21L404.28 424.79H403.07L404.75 422.47L403.15 420.24H404.35L405.35 421.71L406.35 420.24H407.49L406 422.43L407.69 424.79H406.46Z" fill="#263238"/>
<path d="M434.1 416.65H411.35V420.11H434.1V416.65Z" fill="#E0E0E0"/>
<path d="M431.52 428.69C431.52 428.84 424.88 428.95 416.68 428.95C408.48 428.95 401.84 428.84 401.84 428.69C401.84 428.54 408.48 428.43 416.68 428.43C424.88 428.43 431.52 428.55 431.52 428.69Z" fill="#263238"/>
<path d="M431.52 432.3C431.52 432.44 424.88 432.56 416.68 432.56C408.48 432.56 401.84 432.44 401.84 432.3C401.84 432.16 408.48 432.04 416.68 432.04C424.88 432.04 431.52 432.15 431.52 432.3Z" fill="#263238"/>
<path d="M415.07 436.8H399.69V439.76H415.07V436.8Z" fill="#E0E0E0"/>
<path d="M436.12 442.241C436.12 442.241 436.12 442.031 436.12 441.661C436.12 441.291 436.12 440.721 436.12 440.041C436.12 438.591 436.12 436.521 436.07 433.901C436.07 428.611 436 421.101 435.96 412.041L436.17 412.261H397.98L398.24 412.001V416.001C398.24 417.351 398.24 418.681 398.24 420.001V427.761C398.24 432.821 398.24 437.641 398.24 442.151L398.01 441.911L425.54 442.031L433.38 442.091H435.47H436.01H436.2H435.52H433.52L425.73 442.151L398.05 442.271H397.81V442.041C397.81 437.531 397.81 432.711 397.81 427.651V411.851C397.58 412.081 398.13 411.531 398.08 411.591H436.27H436.49V412.001C436.49 421.111 436.4 428.681 436.38 434.001C436.38 436.601 436.33 438.651 436.32 440.081C436.32 440.751 436.32 441.281 436.32 441.671C436.269 441.866 436.202 442.056 436.12 442.241Z" fill="#263238"/>
<path d="M396.17 469.73C396.03 469.73 395.91 453.07 395.91 432.53C395.91 411.99 396.03 395.33 396.17 395.33C396.31 395.33 396.43 411.98 396.43 432.53C396.43 453.08 396.32 469.73 396.17 469.73Z" fill="white"/>
<path d="M437.07 476.7C437.07 476.85 428.37 476.96 417.65 476.96C406.93 476.96 398.24 476.85 398.24 476.7C398.24 476.55 406.93 476.44 417.65 476.44C428.37 476.44 437.07 476.56 437.07 476.7Z" fill="#263238"/>
<path d="M117.31 435.731L110.68 459.281C110.68 459.281 131.81 474.101 131 478.571L86 467.001L94.87 429.881L117.31 435.731Z" fill="#455A64"/>
<path d="M97.2402 453.711C96.769 453.742 96.3259 453.946 95.9957 454.284C95.6655 454.622 95.4713 455.069 95.4502 455.541C95.4521 456.013 95.6343 456.466 95.9597 456.809C96.285 457.151 96.7288 457.355 97.2002 457.381C97.7011 457.354 98.1735 457.139 98.5236 456.78C98.8737 456.42 99.0759 455.942 99.0902 455.441C99.0002 454.491 97.9702 453.501 97.0902 453.731" fill="#E0E0E0"/>
<g opacity="0.6">
<path d="M86 467.001L87 463.301L129.78 475.751C129.78 475.751 131.57 477.151 130.99 478.541L86 467.001Z" fill="white"/>
</g>
<path d="M111.47 459.23C111.4 459.46 110.28 459.23 109.02 459.72C107.76 460.21 106.95 460.97 106.77 460.83C106.59 460.69 107.24 459.47 108.77 458.96C110.3 458.45 111.56 459 111.47 459.23Z" fill="#263238"/>
<path d="M115.7 462.441C115.7 462.681 114.7 462.811 113.7 463.581C112.7 464.351 112.26 465.291 112.04 465.221C111.82 465.151 112.04 463.851 113.23 462.931C114.42 462.011 115.75 462.231 115.7 462.441Z" fill="#263238"/>
<path d="M117 468.92C116.79 468.92 116.76 467.72 117.62 466.63C118.48 465.54 119.62 465.31 119.68 465.52C119.74 465.73 118.93 466.23 118.23 467.14C117.53 468.05 117.19 469 117 468.92Z" fill="#263238"/>
<path d="M112.4 453.701C112.25 453.881 111.32 453.311 110.06 453.081C108.8 452.851 107.73 453.001 107.66 452.771C107.59 452.541 108.72 451.991 110.2 452.281C111.68 452.571 112.55 453.551 112.4 453.701Z" fill="#263238"/>
<path d="M101.53 441.28L100.53 465.76C100.53 465.76 124.53 475.07 124.71 479.62L78.3003 479.25L78.4003 441.03L101.53 441.28Z" fill="#455A64"/>
<path d="M86.1501 463.59C85.6981 463.732 85.3134 464.033 85.0684 464.438C84.8234 464.844 84.7351 465.324 84.8201 465.79C84.9255 466.25 85.206 466.65 85.6019 466.906C85.9978 467.162 86.4779 467.253 86.9401 467.16C87.4198 467.01 87.8274 466.688 88.0856 466.257C88.3437 465.825 88.4343 465.314 88.3401 464.82C88.1805 464.358 87.8462 463.977 87.4088 463.758C86.9713 463.539 86.4657 463.501 86.0001 463.65" fill="#E0E0E0"/>
<g opacity="0.6">
<path d="M78.25 479.25L78.41 475.4L122.85 477.19C122.85 477.19 124.91 478.13 124.66 479.62L78.25 479.25Z" fill="white"/>
</g>
<path d="M101.24 465.53C101.24 465.76 100.1 465.86 98.9702 466.59C97.8402 467.32 97.2502 468.3 97.0402 468.21C96.8302 468.12 97.1802 466.78 98.5602 465.91C99.9402 465.04 101.29 465.31 101.24 465.53Z" fill="#263238"/>
<path d="M106.09 467.63C106.09 467.85 105.16 468.24 104.38 469.22C103.6 470.2 103.38 471.22 103.15 471.22C102.92 471.22 102.79 469.89 103.78 468.7C104.77 467.51 106.09 467.41 106.09 467.63Z" fill="#263238"/>
<path d="M108.81 473.621C108.6 473.671 108.3 472.511 108.89 471.241C109.48 469.971 110.54 469.471 110.64 469.671C110.74 469.871 110.07 470.541 109.64 471.581C109.21 472.621 109 473.601 108.81 473.621Z" fill="#263238"/>
<path d="M100.87 459.921C100.78 460.131 99.7403 459.801 98.4603 459.921C97.1803 460.041 96.1703 460.411 96.0603 460.211C95.9503 460.011 96.9103 459.211 98.4203 459.111C99.9303 459.011 101 459.741 100.87 459.921Z" fill="#263238"/>
<path d="M72.8202 262.11V281.47L77.8902 356.89C77.8902 356.89 74.7302 393.48 72.7902 414.14C71.1102 432.07 73.8602 463.31 73.8602 463.31H103.4L114 359.14L120.56 294.14L132 264.6L72.8202 262.11Z" fill="#263238"/>
<path d="M150.61 265.481L144.95 370.711L115.07 449.501L113.69 454.241L96.0503 449.871L109.17 263.431L150.61 265.481Z" fill="#263238"/>
<path d="M120.46 294.94C120.471 295.087 120.471 295.234 120.46 295.38C120.46 295.7 120.46 296.12 120.46 296.66C120.46 297.82 120.38 299.48 120.31 301.6C120.19 305.88 119.89 312.07 119.47 319.72C118.58 335.02 116.92 356.13 114.32 379.37C111.72 402.61 108.95 423.59 106.89 438.77C105.89 446.33 105 452.46 104.41 456.77C104.11 458.87 103.87 460.51 103.71 461.65C103.62 462.19 103.56 462.65 103.51 462.92C103.493 463.066 103.463 463.21 103.42 463.35V462.91C103.42 462.6 103.51 462.18 103.57 461.64C103.71 460.49 103.91 458.85 104.17 456.74C104.71 452.47 105.5 446.33 106.48 438.74C108.48 423.55 111.19 402.57 113.75 379.33C116.31 356.09 118.06 335.02 119.05 319.73C119.52 312.09 119.88 305.9 120.05 301.62C120.16 299.5 120.24 297.85 120.3 296.69C120.3 296.15 120.36 295.69 120.38 295.41C120.389 295.251 120.416 295.094 120.46 294.94Z" fill="#455A64"/>
<path d="M122.33 268.621C122.322 268.919 122.226 269.209 122.055 269.454C121.883 269.698 121.643 269.887 121.364 269.996C121.086 270.105 120.782 270.129 120.49 270.066C120.198 270.003 119.93 269.855 119.722 269.641C119.513 269.427 119.372 269.156 119.317 268.863C119.261 268.569 119.294 268.265 119.41 267.99C119.526 267.715 119.721 267.48 119.97 267.314C120.219 267.149 120.511 267.061 120.81 267.061C121.013 267.062 121.213 267.103 121.399 267.183C121.586 267.262 121.755 267.378 121.896 267.523C122.038 267.668 122.149 267.84 122.223 268.028C122.298 268.217 122.334 268.418 122.33 268.621Z" fill="#455A64"/>
<path d="M148.3 283.321C147.514 282.758 146.813 282.085 146.22 281.321C144.692 279.514 143.439 277.493 142.5 275.321C141.555 273.152 140.929 270.859 140.64 268.511C140.473 267.546 140.449 266.562 140.57 265.591C140.66 265.591 140.72 266.701 141.02 268.461C141.424 270.742 142.095 272.967 143.02 275.091C143.95 277.2 145.129 279.191 146.53 281.021C147.59 282.461 148.36 283.251 148.3 283.321Z" fill="#455A64"/>
<path d="M144.77 167.181C144.77 167.181 150.42 169.401 153.04 177.681C154.86 183.441 163.38 226.321 163.38 226.321L151.5 234.151L146.67 194.001L144.77 167.181Z" fill="#E0E0E0"/>
<path d="M99.5901 146.7L95.8701 153.3C95.8701 153.3 71.0001 165.94 71.0901 167.18C71.0901 167.18 72.4801 214.36 72.7401 248.97C72.8401 262.04 72.3601 274.05 72.1001 279.82C71.4101 294.97 70.8701 353.82 70.8701 353.82L160.87 351.69L144.77 167.18L132.07 161.63L130.45 158.32L124.62 153.58L99.5901 146.7Z" fill="#E0E0E0"/>
<path d="M139 352.18C139.013 352.047 139.013 351.913 139 351.78C139 351.49 139 351.1 138.95 350.61C138.89 349.54 138.81 348.02 138.7 346.08C138.47 342.13 138.13 336.45 137.7 329.46C136.85 315.4 135.7 296.02 134.39 274.61C133.08 253.2 132.04 233.82 131.23 219.75C130.86 212.75 130.55 207.08 130.34 203.12C130.23 201.18 130.15 199.67 130.09 198.6C130.09 198.11 130.03 197.72 130.01 197.43C130.002 197.296 129.986 197.162 129.96 197.03C129.949 197.163 129.949 197.297 129.96 197.43C129.96 197.72 129.96 198.11 129.96 198.61C129.96 199.67 130.04 201.19 130.11 203.13C130.25 207.06 130.5 212.75 130.83 219.77C131.49 233.77 132.55 253.22 133.83 274.65C135.11 296.08 136.35 315.45 137.3 329.48C137.78 336.48 138.18 342.14 138.45 346.1C138.6 348.03 138.72 349.55 138.8 350.61L138.9 351.79C138.919 351.924 138.952 352.054 139 352.18Z" fill="#263238"/>
<path d="M124.62 153.581L126.71 168.031L130.45 197.031L114.15 169.051L100 150.511L123.32 166.851L123.61 153.311" fill="#28A7B8"/>
<path d="M95.7603 154.181C95.8739 154.571 96.0246 154.949 96.2103 155.311C96.5603 156.101 97.0203 157.151 97.6003 158.441L102.66 169.441L102.72 169.581H102.88H106.28L106.12 169.121L103.62 171.171L103.39 171.361L103.6 171.571L108.34 176.211L123.59 191.001L128.25 195.431L129.54 196.621C129.681 196.769 129.839 196.9 130.01 197.011C129.9 196.836 129.765 196.677 129.61 196.541L128.4 195.281L123.85 190.721L108.72 175.821C107.09 174.221 105.49 172.671 103.97 171.191V171.581L106.46 169.521L107.01 169.061H106.29H102.89L103.11 169.201C100.98 164.761 99.1803 161.001 97.8703 158.281C97.2403 157.011 96.7403 155.981 96.3603 155.211C96.1875 154.852 95.9869 154.508 95.7603 154.181Z" fill="#263238"/>
<path d="M130.45 197.001C130.605 196.41 130.716 195.808 130.78 195.201C130.96 193.951 131.19 192.291 131.47 190.281C132.03 186.121 132.77 180.371 133.55 174.021L134.27 168.101V167.871L134.04 167.811L129.95 166.811V167.291L134.05 166.561L134.33 166.511L134.21 166.261L131.51 160.391C131.2 159.761 130.95 159.231 130.74 158.801C130.665 158.606 130.561 158.423 130.43 158.261C130.472 158.465 130.539 158.663 130.63 158.851C130.81 159.291 131.03 159.851 131.29 160.491C131.93 161.991 132.79 164.001 133.82 166.431L133.98 166.141L129.87 166.811L128.69 167.001L129.85 167.291L133.93 168.291L133.73 168.011C133.49 169.891 133.25 171.881 132.99 173.921C132.21 180.281 131.53 186.031 131.07 190.201C130.86 192.201 130.68 193.891 130.55 195.201C130.47 195.797 130.437 196.399 130.45 197.001Z" fill="#263238"/>
<path d="M116.54 274.211H115.96L114.23 274.321L107.59 274.801L83.8103 276.631H83.5703V276.871C83.9503 281.341 84.3703 286.201 84.8103 291.321C85.0303 293.894 85.257 296.524 85.4903 299.211C85.6103 300.561 85.7203 301.911 85.8403 303.281C85.8823 303.99 85.9928 304.693 86.1703 305.381C86.3813 306.091 86.6982 306.765 87.1103 307.381C88.4562 309.198 90.4654 310.409 92.7003 310.751C94.8032 311.012 96.9216 311.125 99.0403 311.091C103.04 311.102 107.028 310.666 110.93 309.791C111.856 309.567 112.762 309.269 113.64 308.901C114.078 308.724 114.499 308.51 114.9 308.261C115.104 308.125 115.294 307.971 115.47 307.801C115.632 307.624 115.782 307.437 115.92 307.241C116.773 305.672 117.3 303.948 117.47 302.171C117.864 299.051 118.021 295.905 117.94 292.761C117.85 287.001 117.44 282.361 117.13 279.161C116.98 277.561 116.83 276.331 116.72 275.491C116.72 275.091 116.62 274.781 116.59 274.491C116.585 274.381 116.561 274.273 116.52 274.171C116.52 274.171 116.52 274.281 116.52 274.501C116.52 274.721 116.52 275.061 116.6 275.501C116.68 276.381 116.78 277.611 116.91 279.181C117.16 282.381 117.51 287.021 117.55 292.761C117.596 295.883 117.419 299.004 117.02 302.101C116.843 303.808 116.33 305.463 115.51 306.971C114.994 307.675 114.264 308.193 113.43 308.451C112.578 308.804 111.698 309.089 110.8 309.301C106.935 310.153 102.988 310.576 99.0303 310.561C96.945 310.592 94.8599 310.478 92.7903 310.221C90.6941 309.902 88.8079 308.771 87.5403 307.071C87.1722 306.513 86.8828 305.908 86.6803 305.271C86.5149 304.615 86.4112 303.946 86.3703 303.271C86.2503 301.901 86.1303 300.541 86.0203 299.191C85.7803 296.511 85.5503 293.871 85.3203 291.311C84.8603 286.181 84.4303 281.311 84.0303 276.861L83.8203 277.121L107.43 275.061L114.11 274.451L115.89 274.281C116.108 274.273 116.326 274.249 116.54 274.211Z" fill="#263238"/>
<g opacity="0.3">
<path d="M86.2203 304.74C88.7603 311.36 95.3903 311.74 102.53 310.74C109.24 309.74 115.7 308.35 116.2 306.43C116.02 309.94 113.44 312.63 110.2 314.04C106.911 315.297 103.379 315.793 99.8703 315.49C96.2003 315.32 93.0303 315.49 90.0003 313.4C86.9703 311.31 86.2103 307.76 86.2203 304.74Z" fill="black"/>
</g>
<path d="M154.29 276.26C154.281 276.177 154.281 276.093 154.29 276.01L154.2 275.29C154.133 274.624 154.033 273.694 153.9 272.5C153.66 270.02 153.32 266.5 152.9 262.22C152.08 253.54 150.98 241.54 149.82 228.29C148.66 215.04 147.66 203.03 146.99 194.29C146.66 189.94 146.42 186.42 146.28 183.99C146.2 182.77 146.17 181.83 146.15 181.18C146.15 180.89 146.15 180.65 146.15 180.45C146.136 180.367 146.136 180.283 146.15 180.2C146.39 183.02 148.06 202.13 150.34 228.2C151.48 241.44 152.52 253.42 153.27 262.15C153.62 266.46 153.91 269.96 154.11 272.44C154.2 273.62 154.27 274.56 154.32 275.24C154.32 275.53 154.32 275.77 154.32 275.97C154.324 276.068 154.314 276.166 154.29 276.26Z" fill="#263238"/>
<path d="M167.33 227.27C167.714 228.656 167.856 230.097 167.75 231.53C167.54 233.72 167.44 239.1 161.61 240.94C155.78 242.78 152.95 241.02 151.16 238.55L150.27 227.85L156.51 223.73L167.33 227.27Z" fill="#E0E0E0"/>
<g opacity="0.3">
<path d="M118.62 234.15C118.62 234.15 103.71 248.88 92.1301 251C80.5501 253.12 76.4101 249 73.3301 238.63L118.62 234.15Z" fill="black"/>
</g>
<path d="M71.3603 166.82C71.3603 166.82 61.8903 175.6 64.5903 196.39C67.0903 215.71 71.5903 242.61 77.4703 245.74C83.3503 248.87 96.2003 247.3 105.57 241.99C114.94 236.68 142.09 222.32 142.09 222.32L130.85 202.32L94.6403 216.32C94.6403 216.32 89.9603 184.32 87.1503 178.76" fill="#E0E0E0"/>
<path d="M87.0001 178.391C87.0001 178.391 87.1001 178.601 87.2801 179.011C87.3601 179.211 87.4801 179.461 87.6001 179.771C87.7201 180.081 87.8201 180.461 87.9601 180.871C88.4901 182.531 89.1201 185.021 89.8101 188.261C91.2101 194.731 92.9001 204.171 94.6801 215.931L94.4201 215.771L130.61 201.671L130.81 201.591L130.92 201.781C134.47 208.101 138.25 214.781 142.17 221.781L142.3 222.021L142.06 222.151L118.84 234.661L107.45 240.791C105.58 241.791 103.72 242.841 101.79 243.671C99.8644 244.484 97.8867 245.169 95.8701 245.721C91.9424 246.821 87.8654 247.293 83.7901 247.121C81.8036 247.032 79.8461 246.61 78.0001 245.871L77.3201 245.571C77.1001 245.461 76.8901 245.301 76.6701 245.161C76.2986 244.845 75.9632 244.49 75.6701 244.101C75.0749 243.333 74.5621 242.505 74.1401 241.631C72.58 238.268 71.3606 234.757 70.5001 231.151C69.5901 227.681 68.8701 224.271 68.2201 220.961C66.9401 214.351 65.9901 208.151 65.2201 202.481C64.4501 196.811 63.7201 191.651 63.9301 187.081C64.0288 183.175 64.7235 179.307 65.9901 175.611C66.811 173.282 67.9665 171.086 69.4201 169.091C69.802 168.575 70.2161 168.084 70.6601 167.621C70.8118 167.465 70.9721 167.318 71.1401 167.181L70.7001 167.661C70.2763 168.135 69.8791 168.632 69.5101 169.151C68.1023 171.161 66.9847 173.359 66.1901 175.681C64.9494 179.361 64.275 183.208 64.1901 187.091C64.0101 191.631 64.7301 196.761 65.5501 202.421C66.3701 208.081 67.3401 214.281 68.6401 220.881C69.2901 224.171 70.0201 227.571 70.9401 231.031C71.7964 234.602 73.0057 238.079 74.5501 241.411C74.954 242.247 75.4397 243.04 76.0001 243.781C76.2956 244.15 76.631 244.485 77.0001 244.781C77.1848 244.911 77.3786 245.028 77.5801 245.131L78.2201 245.421C80.021 246.125 81.9277 246.52 83.8601 246.591C87.8784 246.755 91.8976 246.286 95.7701 245.201C97.7576 244.66 99.7083 243.992 101.61 243.201C103.53 242.371 105.35 241.341 107.23 240.341L118.62 234.201L141.85 221.701L141.74 222.061L130.52 202.061L130.83 202.171L94.6001 216.171L94.3701 216.261V216.021C92.6401 204.271 91.0101 194.821 89.6801 188.341C89.0301 185.101 88.4301 182.601 87.9301 180.941C87.8101 180.531 87.7001 180.161 87.6001 179.841L87.3101 179.071C87.1101 178.611 87.0001 178.391 87.0001 178.391Z" fill="#263238"/>
<path d="M100 202.351H117.97V196.371H100V202.351Z" fill="white"/>
<path d="M103.72 199.001C105.574 198.732 107.449 198.641 109.32 198.731C111.195 198.641 113.073 198.731 114.93 199.001C113.072 199.258 111.194 199.345 109.32 199.261C107.45 199.345 105.575 199.258 103.72 199.001Z" fill="#263238"/>
<g opacity="0.3">
<path d="M129.54 196.64L103.09 175.18L103.72 173.31H101.42L97.6001 158.44L103.1 169.24L106.28 169.09L103.97 171.21L129.54 196.64Z" fill="black"/>
</g>
<path d="M96.87 172.181L97.87 171.781C97.87 171.731 95.7 166.561 93.57 161.081C92.8049 159.397 92.4946 157.542 92.67 155.701C92.7898 155.121 93.1104 154.603 93.5751 154.237C94.0398 153.871 94.6188 153.681 95.21 153.701L95.91 153.331L96.27 152.691C94.42 152.291 91.94 153.841 91.64 155.551C91.4449 157.584 91.7899 159.633 92.64 161.491C94.69 167.001 96.84 172.131 96.87 172.181Z" fill="#455A64"/>
<path d="M95.31 184.26L96.64 183.74C95.55 180.93 94.06 175.96 94.7 174.56C95.0156 174.061 95.4338 173.634 95.9268 173.308C96.4199 172.982 96.9766 172.765 97.56 172.67C98.2743 172.482 99.0225 172.461 99.7461 172.61C100.47 172.76 101.149 173.074 101.73 173.53C103.25 174.82 105.55 179.36 106.31 181.01L107.6 180.41C107.49 180.16 104.73 174.19 102.65 172.41C101.902 171.811 101.024 171.395 100.087 171.193C99.1496 170.992 98.1784 171.012 97.25 171.25C96.4442 171.39 95.6803 171.71 95.0154 172.186C94.3505 172.662 93.8017 173.282 93.41 174C92.33 176.32 94.8 183 95.31 184.26Z" fill="#455A64"/>
<path d="M109.67 205.94C111.31 205.94 112.93 205.06 114.48 203.32L113.94 202.84C112.24 204.77 110.48 205.53 108.74 205.12C101.63 203.45 96.2102 183.7 96.1602 183.5L95.4702 183.68C95.7002 184.51 101.05 204.05 108.57 205.81C108.93 205.898 109.3 205.941 109.67 205.94Z" fill="#263238"/>
<path d="M113.11 204.131C113.255 204.275 113.446 204.363 113.65 204.377C113.854 204.392 114.056 204.333 114.22 204.211L115.76 203.061C115.875 202.989 115.974 202.894 116.051 202.783C116.129 202.672 116.183 202.546 116.21 202.413C116.237 202.28 116.237 202.143 116.209 202.01C116.182 201.878 116.128 201.752 116.05 201.641C115.968 201.512 115.859 201.404 115.729 201.325C115.599 201.246 115.453 201.197 115.302 201.182C115.15 201.168 114.998 201.188 114.855 201.241C114.713 201.295 114.585 201.38 114.48 201.491L113.09 202.931C112.934 203.093 112.848 203.31 112.852 203.535C112.856 203.76 112.949 203.974 113.11 204.131Z" fill="#263238"/>
<path d="M106.65 206.591C107.575 206.662 108.503 206.5 109.35 206.121C110.197 205.742 110.936 205.158 111.5 204.421C115.87 198.291 107.63 181.271 107.28 180.551L106.64 180.861C106.72 181.041 115.05 198.221 110.92 204.011C109.84 205.521 107.92 206.121 105.3 205.791L105.21 206.491C105.687 206.557 106.168 206.591 106.65 206.591Z" fill="#263238"/>
<path d="M106.78 206.201C106.766 206.404 106.68 206.596 106.537 206.741C106.394 206.886 106.203 206.974 106 206.991L104.08 207.151C103.947 207.172 103.811 207.166 103.68 207.133C103.55 207.101 103.427 207.042 103.32 206.961C103.212 206.879 103.122 206.777 103.055 206.66C102.988 206.544 102.946 206.414 102.93 206.281C102.905 206.131 102.915 205.977 102.958 205.831C103.002 205.685 103.078 205.551 103.181 205.439C103.285 205.327 103.412 205.24 103.554 205.185C103.696 205.13 103.848 205.108 104 205.121L106 205.291C106.223 205.311 106.429 205.418 106.575 205.587C106.72 205.757 106.794 205.977 106.78 206.201Z" fill="#263238"/>
<path d="M141 185.32C143.806 185.32 146.08 183.046 146.08 180.24C146.08 177.435 143.806 175.16 141 175.16C138.194 175.16 135.92 177.435 135.92 180.24C135.92 183.046 138.194 185.32 141 185.32Z" fill="#263238"/>
<path d="M141 185.32C143.806 185.32 146.08 183.046 146.08 180.24C146.08 177.435 143.806 175.16 141 175.16C138.194 175.16 135.92 177.435 135.92 180.24C135.92 183.046 138.194 185.32 141 185.32Z" fill="#263238"/>
<path d="M137.25 180.24C137.248 180.985 137.467 181.713 137.88 182.333C138.292 182.953 138.879 183.436 139.566 183.722C140.254 184.008 141.011 184.083 141.741 183.938C142.471 183.794 143.142 183.435 143.669 182.909C144.195 182.383 144.553 181.712 144.698 180.981C144.843 180.251 144.768 179.494 144.482 178.807C144.196 178.119 143.713 177.532 143.093 177.12C142.473 176.707 141.745 176.488 141 176.49C140.005 176.49 139.052 176.885 138.348 177.589C137.645 178.292 137.25 179.246 137.25 180.24Z" fill="#E0E0E0"/>
<path d="M130.22 158.11C130.7 158.8 136.01 170.01 138.91 175.66L139.76 175.22C139.33 174.39 131.61 158.46 131.01 157.57L125.39 153L125.19 154.07L130.22 158.11Z" fill="#455A64"/>
<path d="M128.09 180.12C131.77 183.79 141.09 193.34 141.09 193.34L143.58 191.84L130.46 177.84C130.194 177.557 129.836 177.377 129.449 177.333C129.063 177.289 128.673 177.384 128.35 177.6C128.148 177.734 127.978 177.911 127.853 178.118C127.728 178.326 127.65 178.558 127.625 178.799C127.6 179.04 127.629 179.283 127.709 179.512C127.79 179.74 127.92 179.948 128.09 180.12Z" fill="#263238"/>
<path d="M130.74 201.911L133.87 193.091C134.195 192.139 134.799 191.308 135.604 190.705C136.408 190.102 137.376 189.756 138.38 189.711H138.85C140.73 189.921 150.3 190.551 150.3 190.551L154 194.701C154.305 195.046 154.473 195.491 154.473 195.951C154.473 196.411 154.305 196.856 154 197.201L155.07 204.701L153 206.141L153.21 211.381C153.21 211.381 151.34 212.621 150.51 212.211L149.67 211.791L148.43 210.541L144.89 215.541L140 218.371L130.74 201.911Z" fill="#FFBF9D"/>
<path d="M154.06 197.621C153.642 197.112 153.195 196.628 152.72 196.171C152.188 195.714 151.583 195.349 150.93 195.091C150.08 194.89 149.213 194.773 148.34 194.741C146.043 194.614 143.759 194.307 141.51 193.821C143.81 193.766 146.111 193.893 148.39 194.201C149.307 194.231 150.217 194.372 151.1 194.621C151.801 194.918 152.439 195.345 152.98 195.881C153.522 196.326 153.902 196.938 154.06 197.621Z" fill="#FF9A6C"/>
<path d="M153.85 204.51C153.636 203.857 153.379 203.219 153.08 202.6C152.226 201.184 150.924 200.093 149.38 199.5C147.809 198.935 146.15 198.654 144.48 198.67C143.78 198.718 143.076 198.698 142.38 198.61C143.056 198.384 143.767 198.276 144.48 198.29C146.21 198.156 147.949 198.395 149.58 198.99C151.239 199.621 152.606 200.843 153.42 202.42C153.795 203.048 153.947 203.785 153.85 204.51Z" fill="#FF9A6C"/>
<path d="M152.91 210.94C152.564 210.31 152.391 209.599 152.41 208.88C152.369 208.143 152.211 207.417 151.94 206.73C151.755 206.336 151.476 205.994 151.127 205.734C150.778 205.474 150.37 205.305 149.94 205.24C148.292 204.887 146.621 204.647 144.94 204.52C144.226 204.492 143.524 204.329 142.87 204.04C143.575 204.024 144.28 204.057 144.98 204.14C146.692 204.154 148.398 204.345 150.07 204.71C150.574 204.836 151.049 205.056 151.47 205.36C151.861 205.666 152.165 206.07 152.35 206.53C152.623 207.273 152.756 208.059 152.74 208.85C152.79 210.15 153 210.91 152.91 210.94Z" fill="#FF9A6C"/>
<path d="M158.13 194.4L116.85 237.03L118.44 238.64L148.01 235.31L187.8 197.4L187.76 195.58L158.13 194.4Z" fill="#455A64"/>
<g opacity="0.3">
<path d="M165.86 214.28C164.887 213.393 163.74 212.719 162.491 212.303C161.242 211.886 159.92 211.735 158.61 211.86C155.985 212.129 153.499 213.173 151.47 214.86C149.751 216.119 148.499 217.913 147.91 219.96C147.07 223.54 150.02 228.55 153.27 230.29C157.39 226.98 161.4 221.9 165.52 218.6C166.188 218.168 166.692 217.523 166.95 216.77C166.985 216.298 166.903 215.824 166.714 215.39C166.524 214.956 166.231 214.575 165.86 214.28Z" fill="black"/>
</g>
<path d="M187.64 197.321C187.46 197.334 187.28 197.334 187.1 197.321H185.52L179.6 197.251L159 196.891L159.19 196.811L148.85 207.541L127.4 229.611L120.86 236.251L119.06 238.041C118.857 238.255 118.64 238.456 118.41 238.641C118.587 238.41 118.784 238.195 119 238.001L120.73 236.141L127.15 229.381C132.64 223.671 140.15 215.841 148.48 207.201C152.13 203.421 155.64 199.801 158.84 196.501L158.92 196.421H159L179.57 197.011L185.48 197.221L187.06 197.301C187.254 197.286 187.448 197.293 187.64 197.321Z" fill="#263238"/>
<path d="M161.8 209.82C161.8 209.82 165.8 209.9 167.11 210.55C168.42 211.2 172 215 172 215C172 215 172 217.6 171 217.7C171.128 218.282 171.198 218.875 171.21 219.47C171.31 220.93 171.52 221.76 169.54 223.01C169.54 223.01 169.75 225.4 169.02 226.01C168.527 226.425 168.005 226.806 167.46 227.15C167.46 227.15 167.35 229.78 163.82 229.75L160.51 231.21C160.51 231.21 153.15 230.52 153.93 229.65C154.71 228.78 156.48 224.47 156.48 224.47C156.48 224.47 151.48 220.8 151.54 219.66C151.6 218.52 152.06 218.41 152.06 218.41C152.06 218.41 151.86 216.23 153.62 216.02C153.62 216.02 154.98 213.31 156.33 213.21C157.68 213.11 166.84 216.43 166.84 216.43L163.41 213.52C163.41 213.52 159.97 213 160.08 211.85C160.19 210.7 161.8 209.82 161.8 209.82Z" fill="#FFBF9D"/>
<path d="M161.2 223.53C159.612 222.861 158.06 222.11 156.55 221.28C154.962 220.6 153.41 219.839 151.9 219C153.613 219.319 155.264 219.91 156.79 220.75C158.396 221.44 159.884 222.378 161.2 223.53Z" fill="#FF9A6C"/>
<path d="M166 220.351C163.949 219.876 161.941 219.227 160 218.411C158.006 217.764 156.072 216.944 154.22 215.961C156.272 216.436 158.279 217.085 160.22 217.901C162.214 218.548 164.148 219.368 166 220.351Z" fill="#FF9A6C"/>
<path d="M100.82 128.2C99.4894 123.665 98.546 119.025 98.0002 114.33C97.4549 109.613 98.087 104.834 99.8402 100.42C100.13 99.7601 102.49 95.4201 103.19 95.4801C103.7 95.5501 102.19 99.6801 102.41 100.14C104.65 104.48 105.05 109.59 104.41 114.44C103.742 119.145 102.552 123.76 100.86 128.2" fill="#263238"/>
<path d="M101.29 110.171C101.51 98.3108 108.6 88.5708 120.44 89.1708L121.53 89.2909C126.833 89.8379 131.735 92.3646 135.257 96.3666C138.778 100.369 140.662 105.551 140.53 110.881C140.28 121.151 139.87 132.491 139.23 137.951C137.9 149.241 126.4 149.811 126.4 149.811L123.78 167.231L99.5903 150.411L101.29 110.171Z" fill="#FFBF9D"/>
<path d="M126.36 149.85C121.137 149.283 116.185 147.232 112.09 143.94C112.09 143.94 114.35 153.61 125.74 153.78L126.36 149.85Z" fill="#FF9A6C"/>
<path d="M136.18 120.29C136.139 120.711 135.936 121.1 135.612 121.372C135.289 121.645 134.872 121.781 134.45 121.75C134.243 121.745 134.039 121.698 133.85 121.613C133.661 121.528 133.492 121.406 133.351 121.254C133.21 121.102 133.101 120.923 133.031 120.729C132.96 120.534 132.929 120.327 132.94 120.12C132.981 119.698 133.184 119.309 133.507 119.034C133.83 118.76 134.247 118.622 134.67 118.65C134.878 118.656 135.082 118.704 135.271 118.79C135.459 118.877 135.629 119 135.77 119.153C135.91 119.305 136.019 119.485 136.09 119.68C136.16 119.875 136.191 120.083 136.18 120.29Z" fill="#263238"/>
<path d="M137.58 115.271C137.36 115.451 136.23 114.421 134.49 114.271C132.75 114.121 131.39 114.831 131.22 114.601C131.05 114.371 131.38 114.131 131.98 113.791C132.788 113.344 133.714 113.163 134.63 113.271C135.533 113.362 136.383 113.737 137.06 114.341C137.55 114.781 137.69 115.181 137.58 115.271Z" fill="#263238"/>
<path d="M121.31 119.59C121.269 120.012 121.066 120.401 120.743 120.676C120.42 120.95 120.003 121.088 119.58 121.06C119.372 121.054 119.168 121.006 118.979 120.92C118.791 120.833 118.621 120.71 118.48 120.557C118.34 120.405 118.231 120.225 118.16 120.03C118.09 119.835 118.059 119.627 118.07 119.42C118.123 119.007 118.331 118.63 118.653 118.366C118.974 118.102 119.385 117.971 119.8 118C120.004 118.005 120.204 118.05 120.39 118.133C120.576 118.216 120.744 118.334 120.884 118.482C121.025 118.63 121.134 118.804 121.207 118.994C121.28 119.184 121.315 119.386 121.31 119.59Z" fill="#263238"/>
<path d="M120.48 114.17C120.26 114.36 119.13 113.33 117.39 113.17C115.65 113.01 114.29 113.73 114.12 113.49C113.95 113.25 114.28 113.03 114.88 112.69C115.687 112.244 116.614 112.062 117.53 112.17C118.433 112.261 119.283 112.636 119.96 113.24C120.45 113.69 120.59 114.09 120.48 114.17Z" fill="#263238"/>
<path d="M125.31 128.191C126.257 127.995 127.225 127.924 128.19 127.981C128.63 127.981 129.06 127.981 129.19 127.641C129.275 127.185 129.219 126.714 129.03 126.291L128.08 122.771C126.76 117.771 125.86 113.671 126.08 113.621C126.3 113.571 127.51 117.621 128.83 122.621C129.14 123.851 129.44 125.031 129.73 126.151C129.937 126.722 129.937 127.349 129.73 127.921C129.65 128.069 129.538 128.198 129.401 128.297C129.264 128.396 129.106 128.462 128.94 128.491C128.684 128.524 128.426 128.524 128.17 128.491C127.208 128.508 126.247 128.407 125.31 128.191Z" fill="#263238"/>
<path d="M120.07 128.85C120.35 128.85 120.16 130.75 121.63 132.26C123.1 133.77 125.13 133.77 125.12 134.04C125.11 134.31 124.63 134.36 123.78 134.29C122.674 134.19 121.639 133.701 120.86 132.91C120.108 132.155 119.68 131.136 119.67 130.07C119.68 129.27 119.94 128.83 120.07 128.85Z" fill="#263238"/>
<path d="M121.13 107.111C120.91 107.561 119.2 107.111 117.13 107.191C115.06 107.271 113.36 107.601 113.13 107.191C113.03 106.971 113.37 106.561 114.13 106.191C115.059 105.719 116.087 105.472 117.13 105.471C118.17 105.465 119.197 105.701 120.13 106.161C120.89 106.481 121.23 106.891 121.13 107.111Z" fill="#263238"/>
<path d="M137.47 109.411C137.12 109.771 135.97 109.241 134.53 109.071C133.09 108.901 131.85 109.071 131.61 108.611C131.51 108.401 131.74 108.021 132.31 107.701C133.07 107.32 133.93 107.184 134.77 107.311C135.614 107.395 136.409 107.745 137.04 108.311C137.5 108.811 137.63 109.231 137.47 109.411Z" fill="#263238"/>
<path d="M101.33 118.641C101.14 118.531 93.8001 115.521 93.2301 123.281C92.6601 131.041 100.57 130.011 100.6 129.791C100.63 129.571 101.33 118.641 101.33 118.641Z" fill="#FFBF9D"/>
<path d="M98.4401 126.671C98.4401 126.671 98.3001 126.761 98.0601 126.851C97.7309 126.956 97.3744 126.934 97.0601 126.791C96.2701 126.431 95.6701 125.081 95.7301 123.681C95.7634 123.014 95.9408 122.362 96.2501 121.771C96.3358 121.526 96.4813 121.306 96.6734 121.131C96.8654 120.957 97.0981 120.833 97.3501 120.771C97.5087 120.739 97.6732 120.765 97.8143 120.844C97.9554 120.923 98.0638 121.049 98.1201 121.201C98.2101 121.421 98.1201 121.571 98.1901 121.591C98.2601 121.611 98.3601 121.471 98.3201 121.151C98.2916 120.955 98.1962 120.775 98.0501 120.641C97.9511 120.553 97.8355 120.486 97.7102 120.443C97.5849 120.4 97.4523 120.382 97.3201 120.391C96.9959 120.427 96.6868 120.548 96.4237 120.741C96.1605 120.934 95.9525 121.193 95.8201 121.491C95.4431 122.137 95.227 122.864 95.1901 123.611C95.1301 125.181 95.8201 126.701 96.9201 127.111C97.124 127.187 97.3424 127.215 97.5589 127.194C97.7754 127.174 97.9844 127.104 98.1701 126.991C98.4201 126.861 98.4701 126.691 98.4401 126.671Z" fill="#FF9A6C"/>
<path d="M136.3 97.6405C137.6 97.0305 134.09 92.7205 131.09 91.1205C126.56 88.7005 119.52 86.9405 115.09 87.8805C109.81 89.0205 105.34 91.3205 102.44 95.8805C99.6269 100.52 98.098 105.825 98.0102 111.25C97.8389 112.899 98.1117 114.563 98.8002 116.07C99.8002 117.85 101.8 119.07 101.54 121.43C101.484 121.857 101.512 122.29 101.623 122.705C101.735 123.121 101.928 123.51 102.19 123.85C103.52 125.46 105.34 124.15 106.24 122.78C108.14 119.84 108.56 116.23 108.94 112.78C109.345 110.327 109.345 107.824 108.94 105.37C108.64 104.05 108.11 102.79 107.94 101.45C107.787 100.791 107.779 100.105 107.918 99.4424C108.056 98.7793 108.336 98.1542 108.74 97.6105C108.945 97.3936 109.169 97.1961 109.41 97.0205C110.555 96.1472 111.911 95.5944 113.34 95.4186C114.768 95.2429 116.218 95.4506 117.54 96.0205C121.81 97.8505 129.13 100.64 131.18 99.2805C134.12 97.3305 134.88 95.9805 134.88 95.9805L136.3 97.6405Z" fill="#263238"/>
</svg>
