<svg width="448" height="363" viewBox="0 0 448 363" fill="none" xmlns="http://www.w3.org/2000/svg">
<path d="M224.17 362.79C347.451 362.79 447.39 309.4 447.39 243.54C447.39 177.68 347.451 124.29 224.17 124.29C100.889 124.29 0.950195 177.68 0.950195 243.54C0.950195 309.4 100.889 362.79 224.17 362.79Z" fill="#F5F5F5"/>
<path d="M134.34 309.92L63.1704 268.54L183.55 198.97L134.34 309.92Z" fill="#E0E0E0"/>
<path d="M31.6102 265.999L60.6102 282.719C61.213 283.025 61.8793 283.184 62.5552 283.184C63.2311 283.184 63.8974 283.025 64.5002 282.719L104.5 259.379C104.736 259.301 104.94 259.151 105.085 258.95C105.231 258.749 105.309 258.507 105.309 258.259C105.309 258.011 105.231 257.77 105.085 257.569C104.94 257.368 104.736 257.217 104.5 257.139L75.5002 240.409C74.8974 240.104 74.2311 239.944 73.5552 239.944C72.8793 239.944 72.213 240.104 71.6102 240.409L31.6102 263.749C31.3761 263.83 31.1729 263.982 31.0292 264.184C30.8854 264.385 30.8081 264.627 30.8081 264.874C30.8081 265.122 30.8854 265.364 31.0292 265.565C31.1729 265.767 31.3761 265.919 31.6102 265.999Z" fill="#E0E0E0"/>
<path d="M34.7502 263.4C32.7502 260.18 26.5802 256.64 18.4802 254.89C10.3802 253.14 2.2402 251 4.1002 246.27C6.1002 241.2 13.6402 240.95 21.0102 243.97C29.0602 247.27 35.0102 255.43 35.1202 260.57L34.7502 263.4Z" fill="#28A7B8"/>
<g opacity="0.1">
<path d="M34.7502 263.4C32.7502 260.18 26.5802 256.64 18.4802 254.89C10.3802 253.14 2.2402 251 4.1002 246.27C6.1002 241.2 13.6402 240.95 21.0102 243.97C29.0602 247.27 35.0102 255.43 35.1202 260.57L34.7502 263.4Z" fill="black"/>
</g>
<path d="M35.38 261.94C35.266 261.939 35.1547 261.905 35.0591 261.843C34.9635 261.781 34.8875 261.693 34.84 261.59C28.41 248.29 13.5 246.14 8.84 246.87C8.68101 246.893 8.51937 246.852 8.39018 246.757C8.26099 246.661 8.17468 246.518 8.15 246.36C8.13718 246.282 8.13996 246.202 8.1582 246.125C8.17643 246.047 8.20976 245.975 8.25624 245.911C8.30273 245.846 8.36145 245.792 8.42903 245.751C8.49662 245.709 8.57172 245.682 8.65 245.67C13.59 244.91 29.24 247.14 35.97 261.07C36.0392 261.214 36.0486 261.381 35.9962 261.532C35.9438 261.684 35.8338 261.809 35.69 261.88C35.593 261.925 35.4867 261.945 35.38 261.94Z" fill="white"/>
<path d="M34.7501 263.4C34.7501 263.4 30.8801 248.07 21.0701 239.83C18.1601 237.38 15.0701 234.31 12.8801 232.2C8.22012 227.66 10.1701 222.71 16.6201 222.81C26.2201 222.94 33.2401 231.02 36.2801 241.59C39.3201 252.16 34.7501 263.4 34.7501 263.4Z" fill="#28A7B8"/>
<path d="M36.2803 257.45C36.1283 257.451 35.9816 257.395 35.8688 257.293C35.756 257.191 35.6852 257.051 35.6703 256.9C33.8703 237.4 18.9903 227.6 14.9403 226.56C14.7851 226.52 14.6521 226.42 14.5705 226.283C14.489 226.145 14.4655 225.98 14.5053 225.825C14.545 225.67 14.6448 225.537 14.7827 225.455C14.9205 225.374 15.0851 225.35 15.2403 225.39C20.1603 226.65 35.0303 236.82 36.8803 256.79C36.8942 256.95 36.8442 257.11 36.7412 257.233C36.6381 257.357 36.4904 257.435 36.3303 257.45H36.2803Z" fill="white"/>
<path d="M61.5898 280.26L34.2698 264.48L34.2598 205.88L61.5898 221.66V280.26Z" fill="#263238"/>
<path d="M61.5898 221.66L100.63 199.12V257.72L61.5898 280.26V221.66Z" fill="#37474F"/>
<path d="M100.63 199.12L61.5898 221.66L34.2598 205.88L73.3098 183.34L100.63 199.12Z" fill="#455A64"/>
<path d="M78.46 220.94L83.77 217.87C84.46 217.47 85.02 217.65 85.02 218.28C84.9693 218.663 84.8298 219.028 84.6128 219.348C84.3958 219.667 84.1072 219.932 83.77 220.12L78.46 223.19C77.77 223.59 77.21 223.41 77.21 222.78C77.2607 222.397 77.4001 222.031 77.6171 221.712C77.8341 221.392 78.1227 221.128 78.46 220.94Z" fill="#263238"/>
<path d="M64.7798 251.38L96.0098 233.35L96.7298 233.76L96.0098 255.05L96.7298 255.47L65.4998 273.5L64.7798 273.08V251.38Z" fill="#263238"/>
<path d="M65.5 251.79L96.73 233.76V255.47L65.5 273.5V251.79Z" fill="#455A64"/>
<path d="M77.7397 248.4L83.0498 245.34C83.7398 244.94 84.2998 245.12 84.2998 245.74C84.2498 246.124 84.1107 246.492 83.8937 246.813C83.6767 247.134 83.3877 247.4 83.0498 247.59L77.7397 250.66C77.0497 251.06 76.4897 250.87 76.4897 250.25C76.5412 249.866 76.6809 249.499 76.8977 249.178C77.1146 248.857 77.4028 248.591 77.7397 248.4Z" fill="#263238"/>
<path d="M64.7798 224.38L96.0098 206.35L96.7298 206.76L96.0098 228.05L96.7298 228.47L65.4998 246.5L64.7798 246.08V224.38Z" fill="#263238"/>
<path d="M65.5 224.79L96.73 206.76V228.47L65.5 246.5V224.79Z" fill="#455A64"/>
<path d="M77.7397 221.4L83.0498 218.34C83.7398 217.94 84.2998 218.12 84.2998 218.74C84.2498 219.124 84.1107 219.492 83.8937 219.813C83.6767 220.134 83.3877 220.4 83.0498 220.59L77.7397 223.66C77.0497 224.06 76.4897 223.87 76.4897 223.25C76.5412 222.866 76.6809 222.499 76.8977 222.178C77.1146 221.857 77.4028 221.591 77.7397 221.4Z" fill="#263238"/>
<path d="M61.5898 219.17L34.2698 203.39L34.2598 144.78L61.5898 160.56V219.17Z" fill="#263238"/>
<path d="M61.5898 160.561L100.63 138.021V196.631L61.5898 219.171V160.561Z" fill="#37474F"/>
<path d="M100.63 138.02L61.5898 160.56L34.2598 144.78L73.3098 122.24L100.63 138.02Z" fill="#455A64"/>
<path d="M65.5 162.81L96.73 144.78L97.45 145.2V166.9L66.22 184.94L65.5 184.52V162.81Z" fill="#263238"/>
<path d="M78.46 159.841L83.77 156.771C84.46 156.371 85.02 156.561 85.02 157.181C84.9685 157.565 84.8288 157.931 84.612 158.252C84.3951 158.573 84.1069 158.84 83.77 159.031L78.46 162.091C77.77 162.491 77.21 162.311 77.21 161.691C77.2599 161.306 77.399 160.939 77.616 160.618C77.833 160.297 78.122 160.03 78.46 159.841Z" fill="#263238"/>
<path d="M64.7798 190.28L96.0098 172.25V193.96L96.7298 194.37L65.4998 212.4L64.7798 211.99V190.28Z" fill="#263238"/>
<path d="M65.5 190.7L96.73 172.66V194.37L65.5 212.4V190.7Z" fill="#455A64"/>
<path d="M77.7397 187.31L83.0498 184.24C83.7398 183.84 84.2998 184.02 84.2998 184.65C84.249 185.033 84.1096 185.398 83.8926 185.718C83.6756 186.037 83.387 186.302 83.0498 186.49L77.7397 189.56C77.0497 189.96 76.4897 189.78 76.4897 189.15C76.5404 188.767 76.6799 188.401 76.8969 188.082C77.1139 187.762 77.4025 187.498 77.7397 187.31Z" fill="#263238"/>
<path d="M65.5 162.81L96.73 144.78V166.49L65.5 184.52V162.81Z" fill="#263238"/>
<path d="M112.35 155.501L95.25 145.641V164.761L112.35 174.631V155.501Z" fill="#263238"/>
<path d="M77.21 187.61V160.56L83.91 156.68L85.02 158.31L104.54 147.03V171.83L77.21 187.61Z" fill="#28A7B8"/>
<g opacity="0.2">
<path d="M77.21 187.61V160.56L83.91 156.68L85.02 158.31L104.54 147.03V171.83L77.21 187.61Z" fill="black"/>
</g>
<path d="M77.21 187.61L79.16 163.94L106.49 148.16L104.54 171.83L77.21 187.61Z" fill="#28A7B8"/>
<path d="M81.11 173.54L66.21 164.94V184.06L81.11 192.66V173.54Z" fill="#37474F"/>
<path d="M81.1099 171.83L112.35 153.8V175.5L81.1099 193.54V171.83Z" fill="#455A64"/>
<path d="M93.3599 168.44L98.6699 165.37C99.3599 164.97 99.9199 165.16 99.9199 165.78C99.8684 166.164 99.7287 166.531 99.5119 166.852C99.295 167.173 99.0068 167.439 98.6699 167.63L93.3599 170.69C92.6699 171.09 92.1099 170.91 92.1099 170.29C92.1613 169.906 92.301 169.54 92.5178 169.219C92.7347 168.898 93.0229 168.631 93.3599 168.44Z" fill="#263238"/>
<path d="M81.1098 171.83L80.0698 171.23V192.94L81.1098 193.54V171.83Z" fill="#263238"/>
<path d="M80.0698 171.23L111.31 153.2L112.35 153.8L81.1098 171.83L80.0698 171.23Z" fill="#37474F"/>
<path d="M342 15.2995L337.94 12.9395L130.75 132.539V305.769C130.695 306.306 130.782 306.847 131.003 307.339C131.225 307.831 131.572 308.255 132.01 308.569L136.07 310.929C136.562 311.156 137.106 311.247 137.646 311.195C138.185 311.142 138.701 310.947 139.14 310.629L337.64 195.999C338.9 195.177 339.949 194.07 340.701 192.767C341.453 191.464 341.888 190.002 341.97 188.499L342 15.2995Z" fill="#E6E6E6"/>
<path d="M134.81 308.13C134.81 310.89 136.74 312.01 139.14 310.63L337.64 196C338.9 195.178 339.949 194.07 340.701 192.767C341.453 191.464 341.888 190.002 341.97 188.5V15.2998L134.81 134.91V308.13Z" fill="#FAFAFA"/>
<path d="M341 16.9995V188.52C340.918 189.847 340.529 191.137 339.865 192.289C339.2 193.441 338.278 194.424 337.17 195.16L138.67 309.76C138.237 310.033 137.741 310.192 137.23 310.22C135.97 310.22 135.84 308.76 135.84 308.13V135.48L341 16.9995ZM342 15.2695L134.81 134.91V308.13C134.81 310.13 135.81 311.22 137.2 311.22C137.887 311.193 138.555 310.99 139.14 310.63L337.64 196C338.9 195.177 339.949 194.07 340.701 192.767C341.453 191.464 341.888 190.002 341.97 188.5V15.2995L342 15.2695Z" fill="#E0E0E0"/>
<path d="M134.81 134.91V153.66L341.97 34.0498V15.2998L134.81 134.91Z" fill="#28A7B8"/>
<path d="M264.79 67.2097V71.2097C264.79 72.0297 265.38 72.3697 266.09 71.9597L329.78 35.1797V28.1797L266.09 64.9997C265.718 65.2438 265.408 65.57 265.183 65.9532C264.957 66.3364 264.823 66.7663 264.79 67.2097Z" fill="#FAFAFA"/>
<path d="M336.61 24.2496C337.33 23.8296 337.91 24.1696 337.91 24.9996V28.9996C337.886 29.4506 337.756 29.8897 337.53 30.2807C337.304 30.6718 336.989 31.0038 336.61 31.2496L329.78 35.1896V28.1896L336.61 24.2496Z" fill="#455A64"/>
<path d="M336.11 29.7795L335.34 29.5395C335.425 29.2128 335.468 28.8769 335.47 28.5395C335.504 28.2319 335.458 27.9207 335.335 27.6366C335.212 27.3525 335.017 27.1053 334.77 26.9195C334.602 26.82 334.41 26.7676 334.215 26.7676C334.02 26.7676 333.828 26.82 333.66 26.9195C333.176 27.2914 332.786 27.7722 332.521 28.323C332.257 28.8737 332.127 29.4788 332.14 30.0895C332.104 30.3972 332.149 30.7091 332.272 30.9935C332.395 31.278 332.591 31.525 332.84 31.7095C332.984 31.7975 333.151 31.8426 333.32 31.8395C333.539 31.8348 333.753 31.7727 333.94 31.6595C334.523 31.2621 334.956 30.6813 335.17 30.0095L335.94 30.2495H336C336.059 30.2505 336.117 30.2326 336.166 30.1985C336.215 30.1643 336.251 30.1156 336.27 30.0595C336.274 30.0022 336.261 29.945 336.233 29.8952C336.204 29.8453 336.161 29.8051 336.11 29.7795ZM333.66 31.2395C333.584 31.2977 333.493 31.3333 333.397 31.3422C333.302 31.351 333.206 31.3328 333.12 31.2895C332.965 31.1485 332.847 30.972 332.775 30.7751C332.704 30.5783 332.681 30.3669 332.71 30.1595C332.7 29.649 332.805 29.1428 333.018 28.6787C333.231 28.2147 333.546 27.8047 333.94 27.4795C334.046 27.414 334.166 27.3762 334.29 27.3695C334.361 27.3693 334.431 27.3901 334.49 27.4295C334.643 27.5719 334.76 27.7486 334.831 27.9451C334.902 28.1415 334.926 28.3521 334.9 28.5595C334.908 29.0707 334.801 29.5771 334.586 30.0411C334.371 30.5051 334.055 30.9147 333.66 31.2395Z" fill="#FAFAFA"/>
<path d="M336.68 1.08983C336.187 0.848483 335.637 0.746975 335.091 0.796344C334.544 0.845714 334.022 1.04408 333.58 1.36984L135.08 116C133.818 116.82 132.768 117.927 132.016 119.231C131.264 120.534 130.83 121.997 130.75 123.5V132.57L134.81 134.94L342 15.2998V6.22984C342.061 5.69544 341.977 5.1545 341.757 4.66366C341.537 4.17282 341.189 3.75013 340.75 3.43984C340 2.99984 337.39 1.51983 336.68 1.08983Z" fill="#263238"/>
<path d="M134.81 125.839C134.888 124.336 135.321 122.873 136.074 121.569C136.827 120.266 137.877 119.159 139.14 118.339L337.64 3.7295C340.03 2.3495 341.97 3.4695 341.97 6.2295V15.2995L134.81 134.91V125.839Z" fill="#37474F"/>
<path d="M340.76 3.45994C340.266 3.21322 339.713 3.10788 339.162 3.15553C338.611 3.20317 338.085 3.40195 337.64 3.72994L139.14 118.33C137.861 119.128 136.808 120.24 136.08 121.56L132 119.21C132.731 117.886 133.788 116.771 135.07 115.97L333.58 1.35994C334.023 1.03577 334.546 0.839194 335.092 0.791589C335.639 0.743985 336.188 0.847174 336.68 1.08994C337.39 1.51994 339.99 3.00994 340.68 3.42994L340.76 3.45994Z" fill="#455A64"/>
<path d="M317.6 20.0004C317.014 20.3895 316.528 20.9108 316.181 21.5222C315.833 22.1336 315.635 22.818 315.6 23.5204C315.6 24.8104 316.51 25.3404 317.6 24.6904C318.186 24.3013 318.672 23.78 319.019 23.1686C319.367 22.5572 319.566 21.8728 319.6 21.1704C319.63 19.8604 318.72 19.3304 317.6 20.0004Z" fill="#28A7B8"/>
<path d="M324.71 15.8902C324.124 16.2772 323.638 16.7966 323.291 17.4064C322.943 18.0162 322.744 18.6992 322.71 19.4002C322.71 20.7002 323.62 21.2202 324.71 20.5802C325.295 20.1899 325.78 19.6684 326.127 19.0572C326.474 18.4461 326.674 17.7622 326.71 17.0602C326.74 15.7602 325.83 15.2402 324.71 15.8902Z" fill="#28A7B8"/>
<path d="M331.81 11.7897C331.224 12.1789 330.738 12.7001 330.391 13.3115C330.043 13.9229 329.844 14.6074 329.81 15.3097C329.81 16.6097 330.72 17.1298 331.81 16.4798C332.397 16.0924 332.885 15.5715 333.232 14.9598C333.58 14.348 333.778 13.6626 333.81 12.9597C333.85 11.6697 332.94 11.1397 331.81 11.7897Z" fill="#28A7B8"/>
<path d="M139.14 310.63L175.43 289.68V130.2L134.81 153.66V308.13C134.81 310.89 136.74 312 139.14 310.63Z" fill="#F5F5F5"/>
<path d="M174.43 131.93V289.1L138.64 309.76C138.207 310.034 137.711 310.192 137.2 310.22C135.94 310.22 135.81 308.76 135.81 308.13V154.23L174.43 131.93ZM175.43 130.2L134.81 153.66V308.13C134.81 310.13 135.81 311.22 137.2 311.22C137.887 311.193 138.555 310.99 139.14 310.63L175.43 289.68V130.2Z" fill="#E0E0E0"/>
<path d="M148.29 155.25L167.73 144C168.44 143.58 169.02 143.92 169.02 144.75V146.44C168.995 146.889 168.866 147.327 168.642 147.717C168.418 148.108 168.106 148.441 167.73 148.69L148.29 159.92C147.57 160.34 146.99 160 146.99 159.17V157.5C147.017 157.049 147.148 156.611 147.374 156.221C147.6 155.83 147.913 155.498 148.29 155.25Z" fill="#E0E0E0"/>
<path d="M142.93 159.85V161.54C142.906 161.991 142.775 162.43 142.549 162.82C142.323 163.211 142.009 163.544 141.63 163.79L140.17 164.63C139.45 165.05 138.87 164.71 138.87 163.88V162.19C138.895 161.739 139.025 161.3 139.251 160.909C139.477 160.518 139.792 160.186 140.17 159.94L141.63 159.1C142.35 158.68 142.93 159 142.93 159.85Z" fill="#28A7B8"/>
<path d="M148.29 164.6L167.73 153.37C168.44 152.95 169.02 153.29 169.02 154.11V155.8C168.995 156.251 168.866 156.69 168.642 157.082C168.418 157.474 168.106 157.809 167.73 158.06L148.29 169.29C147.57 169.7 146.99 169.37 146.99 168.54V166.85C147.015 166.399 147.146 165.961 147.372 165.57C147.598 165.179 147.912 164.847 148.29 164.6Z" fill="#E0E0E0"/>
<path d="M142.93 169.19V170.88C142.906 171.331 142.776 171.77 142.55 172.161C142.324 172.552 142.009 172.884 141.63 173.13L140.17 173.98C139.45 174.39 138.87 174.06 138.87 173.23V171.54C138.894 171.089 139.024 170.65 139.25 170.259C139.476 169.868 139.791 169.536 140.17 169.29L141.63 168.44C142.35 168 142.93 168.36 142.93 169.19Z" fill="#28A7B8"/>
<path d="M148.29 173.94L167.73 162.71C168.44 162.3 169.02 162.63 169.02 163.46V165.15C168.997 165.6 168.868 166.038 168.644 166.429C168.42 166.82 168.107 167.153 167.73 167.4L148.29 178.63C147.57 179.05 146.99 178.71 146.99 177.89V176.19C147.018 175.74 147.15 175.302 147.375 174.912C147.601 174.521 147.914 174.189 148.29 173.94Z" fill="#E0E0E0"/>
<path d="M142.93 178.54V180.23C142.906 180.681 142.776 181.12 142.55 181.511C142.324 181.902 142.009 182.234 141.63 182.48L140.17 183.33C139.45 183.74 138.87 183.4 138.87 182.58V180.88C138.896 180.43 139.027 179.991 139.253 179.601C139.479 179.21 139.793 178.878 140.17 178.63L141.63 177.79C142.35 177.38 142.93 177.71 142.93 178.54Z" fill="#28A7B8"/>
<path d="M148.29 204.94L167.73 193.7C168.44 193.29 169.02 193.62 169.02 194.45V196.14C168.997 196.59 168.868 197.028 168.644 197.419C168.42 197.81 168.107 198.143 167.73 198.39L148.29 209.63C147.57 210.04 146.99 209.71 146.99 208.88V207.19C147.015 206.74 147.146 206.301 147.372 205.91C147.598 205.519 147.912 205.187 148.29 204.94Z" fill="#E0E0E0"/>
<path d="M142.93 209.53V211.22C142.906 211.671 142.776 212.11 142.55 212.502C142.324 212.893 142.009 213.225 141.63 213.47L140.17 214.32C139.45 214.73 138.87 214.4 138.87 213.57V211.88C138.894 211.429 139.024 210.99 139.25 210.599C139.476 210.208 139.791 209.876 140.17 209.63L141.63 208.78C142.35 208.37 142.93 208.7 142.93 209.53Z" fill="#28A7B8"/>
<path d="M148.29 213.21L167.73 202C168.44 201.59 169.02 201.92 169.02 202.75V204.44C168.997 204.89 168.868 205.328 168.644 205.719C168.42 206.11 168.107 206.443 167.73 206.69L148.29 217.9C147.57 218.32 146.99 217.98 146.99 217.15V215.46C147.018 215.01 147.15 214.572 147.375 214.182C147.601 213.791 147.914 213.459 148.29 213.21Z" fill="#E0E0E0"/>
<path d="M142.93 217.81V219.5C142.906 219.951 142.776 220.39 142.55 220.781C142.324 221.172 142.009 221.504 141.63 221.75L140.17 222.59C139.45 223.01 138.87 222.67 138.87 221.84V220.15C138.896 219.7 139.027 219.261 139.253 218.871C139.479 218.48 139.793 218.148 140.17 217.9L141.63 217.06C142.35 216.65 142.93 217 142.93 217.81Z" fill="#28A7B8"/>
<path d="M148.29 221.49L167.73 210.26C168.44 209.84 169.02 210.18 169.02 211.01V212.7C168.995 213.15 168.866 213.588 168.642 213.978C168.418 214.369 168.106 214.702 167.73 214.95L148.29 226.18C147.57 226.6 146.99 226.26 146.99 225.43V223.74C147.017 223.29 147.148 222.852 147.374 222.462C147.6 222.071 147.913 221.738 148.29 221.49Z" fill="#E0E0E0"/>
<path d="M142.93 226.09V227.78C142.906 228.231 142.775 228.67 142.549 229.061C142.323 229.452 142.009 229.784 141.63 230.03L140.17 230.87C139.45 231.29 138.87 230.95 138.87 230.12V228.43C138.895 227.98 139.025 227.541 139.251 227.15C139.477 226.759 139.792 226.427 140.17 226.18L141.63 225.34C142.35 224.92 142.93 225.26 142.93 226.09Z" fill="#28A7B8"/>
<path d="M146.99 184.15V187.06L149.52 184.15H146.99Z" fill="#28A7B8"/>
<path d="M151.06 183.54C151.06 184.09 151.44 184.3 151.92 184.02L168.16 174.68C168.411 174.515 168.62 174.294 168.77 174.033C168.919 173.772 169.005 173.48 169.02 173.18C169.02 172.63 168.64 172.41 168.16 172.69L151.92 182.06C151.67 182.222 151.462 182.44 151.313 182.697C151.163 182.954 151.077 183.243 151.06 183.54Z" fill="#E0E0E0"/>
<path d="M146.99 188.83V191.75L149.52 188.83H146.99Z" fill="#28A7B8"/>
<path d="M151.06 188.23C151.06 188.77 151.44 188.99 151.92 188.71L168.16 179.36C168.412 179.198 168.621 178.979 168.77 178.72C168.92 178.46 169.006 178.169 169.02 177.87C169.02 177.32 168.64 177.1 168.16 177.38L151.92 186.75C151.67 186.912 151.462 187.13 151.313 187.387C151.163 187.645 151.077 187.933 151.06 188.23Z" fill="#E0E0E0"/>
<path d="M146.99 193.52V196.44L149.52 193.52H146.99Z" fill="#28A7B8"/>
<path d="M151.06 192.92C151.06 193.46 151.44 193.68 151.92 193.4L168.16 184.05C168.412 183.888 168.621 183.668 168.77 183.409C168.92 183.15 169.006 182.859 169.02 182.56C169.02 182.01 168.64 181.79 168.16 182.07L151.92 191.44C151.67 191.601 151.462 191.82 151.313 192.077C151.163 192.334 151.077 192.623 151.06 192.92Z" fill="#E0E0E0"/>
<path d="M146.99 198.21V201.13L149.52 198.21H146.99Z" fill="#28A7B8"/>
<path d="M151.06 197.61C151.06 198.15 151.44 198.37 151.92 198.09L168.16 188.74C168.412 188.578 168.621 188.359 168.77 188.099C168.92 187.84 169.006 187.549 169.02 187.25C169.02 186.7 168.64 186.48 168.16 186.76L151.92 196.13C151.67 196.292 151.462 196.51 151.313 196.767C151.163 197.025 151.077 197.313 151.06 197.61Z" fill="#E0E0E0"/>
<path d="M187.61 135.79V160.23C187.61 161.23 188.33 161.67 189.22 161.16L216.09 145.64C216.559 145.337 216.95 144.927 217.229 144.443C217.509 143.96 217.671 143.417 217.7 142.86V122.77C217.7 121.77 216.98 121.33 216.09 121.84L200.5 130.84C199.61 131.35 198.89 130.94 198.89 129.92V129.28C198.89 128.28 198.18 127.84 197.29 128.35L189.22 133C188.751 133.305 188.361 133.717 188.081 134.202C187.802 134.687 187.64 135.231 187.61 135.79Z" fill="#28A7B8"/>
<path d="M192.9 164.84V166.41C192.9 167.17 193.44 167.48 194.1 167.1L214.26 155.46C214.61 155.233 214.9 154.926 215.109 154.564C215.318 154.203 215.438 153.797 215.46 153.38V151.81C215.46 151.05 214.92 150.74 214.26 151.12L194.1 162.76C193.75 162.988 193.459 163.295 193.251 163.657C193.042 164.018 192.922 164.424 192.9 164.84Z" fill="#E0E0E0"/>
<path d="M225 114.34V138.78C225 139.78 225.72 140.21 226.6 139.7L253.47 124.19C253.937 123.885 254.327 123.474 254.606 122.992C254.886 122.509 255.048 121.967 255.08 121.41V101.31C255.08 100.31 254.36 99.8696 253.47 100.38L237.88 109.38C236.99 109.89 236.28 109.47 236.28 108.45V107.81C236.28 106.81 235.56 106.38 234.67 106.89L226.6 111.55C226.133 111.856 225.744 112.268 225.466 112.753C225.188 113.238 225.028 113.781 225 114.34Z" fill="#28A7B8"/>
<path d="M230.26 143.39V145C230.26 145.77 230.8 146.08 231.46 145.7L251.62 134C251.97 133.769 252.26 133.46 252.468 133.097C252.677 132.734 252.797 132.328 252.82 131.91V130.35C252.82 129.58 252.28 129.27 251.62 129.66L231.46 141.3C231.111 141.53 230.82 141.839 230.612 142.202C230.404 142.565 230.283 142.972 230.26 143.39Z" fill="#E0E0E0"/>
<path d="M187.61 184.89V209.33C187.61 210.33 188.33 210.77 189.22 210.26L216.09 194.74C216.553 194.44 216.939 194.036 217.219 193.56C217.498 193.085 217.663 192.551 217.7 192V171.9C217.7 170.9 216.98 170.47 216.09 170.98L200.5 179.98C199.61 180.49 198.89 180.08 198.89 179.06V178.42C198.89 177.42 198.18 176.98 197.29 177.49L189.22 182.15C188.757 182.45 188.371 182.854 188.091 183.33C187.812 183.806 187.647 184.34 187.61 184.89Z" fill="#28A7B8"/>
<path d="M192.9 213.94V215.51C192.9 216.27 193.44 216.58 194.1 216.2L214.26 204.56C214.608 204.331 214.899 204.024 215.107 203.662C215.315 203.301 215.436 202.896 215.46 202.48V200.91C215.46 200.15 214.92 199.84 214.26 200.22L194.1 211.86C193.75 212.088 193.459 212.395 193.251 212.756C193.042 213.118 192.922 213.523 192.9 213.94Z" fill="#E0E0E0"/>
<path d="M225 163.43V187.87C225 188.87 225.72 189.31 226.6 188.8L253.47 173.28C253.938 172.978 254.328 172.57 254.607 172.088C254.887 171.607 255.049 171.066 255.08 170.51V150.41C255.08 149.41 254.36 148.97 253.47 149.48L237.88 158.48C236.99 158.99 236.28 158.57 236.28 157.55V156.91C236.28 155.91 235.56 155.47 234.67 155.99L226.6 160.65C226.133 160.955 225.745 161.365 225.467 161.849C225.189 162.332 225.029 162.874 225 163.43Z" fill="#28A7B8"/>
<path d="M230.26 192.49V194.05C230.26 194.82 230.8 195.13 231.46 194.74L251.62 183.11C251.97 182.879 252.26 182.57 252.468 182.207C252.677 181.844 252.797 181.438 252.82 181.02V179.46C252.82 178.69 252.28 178.38 251.62 178.76L231.46 190.4C231.111 190.63 230.82 190.939 230.612 191.302C230.404 191.665 230.283 192.072 230.26 192.49Z" fill="#E0E0E0"/>
<path d="M262.78 91.6997V116.14C262.78 117.14 263.5 117.58 264.38 117.07L291.26 101.55C291.726 101.244 292.114 100.834 292.392 100.351C292.67 99.8678 292.83 99.3262 292.86 98.7697V78.6797C292.86 77.6797 292.14 77.2397 291.26 77.7497L275.66 86.7497C274.78 87.2697 274.06 86.8497 274.06 85.8297V85.1897C274.06 84.1897 273.34 83.7497 272.45 84.2597L264.38 88.9297C263.914 89.2334 263.527 89.6425 263.249 90.1237C262.971 90.6049 262.81 91.1448 262.78 91.6997Z" fill="#28A7B8"/>
<path d="M267.62 121.93V123.5C267.62 124.26 268.16 124.57 268.83 124.19L289 112.55C289.352 112.324 289.646 112.017 289.856 111.656C290.066 111.294 290.188 110.888 290.21 110.47V108.91C290.21 108.14 289.67 107.83 289 108.21L268.85 119.85C268.494 120.074 268.197 120.379 267.983 120.741C267.769 121.103 267.645 121.51 267.62 121.93Z" fill="#E0E0E0"/>
<path d="M299.7 71.4304V95.8704C299.7 96.8704 300.42 97.3004 301.31 96.7904L328.18 81.2804C328.646 80.9751 329.034 80.5644 329.312 80.0814C329.59 79.5985 329.75 79.0569 329.78 78.5004V58.4004C329.78 57.4004 329.07 56.9604 328.18 57.4704L312.59 66.4704C311.7 66.9804 310.98 66.5604 310.98 65.5404V64.9004C310.98 63.9004 310.27 63.4704 309.38 63.9804L301.31 68.6404C300.84 68.9444 300.448 69.3559 300.168 69.8411C299.888 70.3262 299.728 70.871 299.7 71.4304Z" fill="#28A7B8"/>
<path d="M305 100.48V102C305 102.77 305.53 103.08 306.2 102.7L326.36 91.0603C326.708 90.8308 326.998 90.5233 327.206 90.1622C327.414 89.8012 327.536 89.3965 327.56 88.9803V87.4103C327.56 86.6403 327.02 86.3303 326.36 86.7203L306.2 98.3503C305.844 98.5835 305.55 98.8987 305.341 99.2693C305.132 99.6399 305.015 100.055 305 100.48Z" fill="#E0E0E0"/>
<path d="M267.62 171V172.57C267.62 173.33 268.16 173.64 268.83 173.26L289 161.63C289.352 161.404 289.646 161.097 289.856 160.736C290.066 160.374 290.188 159.968 290.21 159.55V158C290.21 157.24 289.67 156.93 289 157.31L268.85 168.95C268.498 169.171 268.204 169.471 267.99 169.828C267.776 170.184 267.649 170.585 267.62 171Z" fill="#E0E0E0"/>
<path d="M268.13 136.66L289 124.59C289.95 124.04 290.73 124.49 290.73 125.59V149.73C290.697 150.331 290.524 150.916 290.223 151.437C289.923 151.958 289.504 152.401 289 152.73L268.13 164.8C267.13 165.35 266.4 164.91 266.4 163.8V139.66C266.433 139.06 266.607 138.475 266.908 137.954C267.208 137.433 267.627 136.99 268.13 136.66Z" fill="#FAFAFA"/>
<path d="M267.35 165.54C267.105 165.542 266.863 165.48 266.65 165.36C266.397 165.191 266.193 164.957 266.061 164.683C265.929 164.408 265.874 164.103 265.9 163.8V139.66C265.935 138.97 266.134 138.298 266.482 137.702C266.83 137.105 267.316 136.6 267.9 136.23L288.81 124.16C289.059 123.986 289.35 123.884 289.653 123.862C289.956 123.841 290.259 123.903 290.53 124.04C290.783 124.208 290.986 124.44 291.12 124.712C291.253 124.984 291.312 125.287 291.29 125.59V149.73C291.255 150.42 291.055 151.092 290.707 151.688C290.359 152.285 289.873 152.79 289.29 153.16L268.38 165.24C268.068 165.428 267.713 165.531 267.35 165.54ZM289.81 124.86C289.624 124.867 289.444 124.926 289.29 125.03L268.38 137.1C267.951 137.382 267.594 137.761 267.337 138.205C267.08 138.649 266.93 139.148 266.9 139.66V163.8C266.9 164.15 266.99 164.4 267.15 164.49C267.272 164.53 267.402 164.54 267.53 164.519C267.657 164.499 267.777 164.447 267.88 164.37L288.79 152.3C289.217 152.014 289.573 151.633 289.83 151.188C290.086 150.742 290.237 150.243 290.27 149.73V125.59C290.285 125.463 290.269 125.333 290.224 125.213C290.179 125.093 290.105 124.986 290.01 124.9C289.947 124.87 289.879 124.857 289.81 124.86Z" fill="#EBEBEB"/>
<path d="M291.5 127.85L286.84 130.54C286.334 130.868 285.913 131.31 285.611 131.832C285.309 132.353 285.134 132.938 285.1 133.54V138.92C285.1 140.03 285.88 140.48 286.84 139.92L291.5 137.23C292.004 136.901 292.423 136.458 292.724 135.937C293.024 135.415 293.198 134.831 293.23 134.23V128.85C293.23 127.75 292.45 127.3 291.5 127.85Z" fill="#28A7B8"/>
<path d="M269.72 139.27L280.2 133.27C280.67 133 281.06 133.22 281.06 133.78V134.11C281.042 134.41 280.956 134.701 280.806 134.961C280.657 135.222 280.45 135.444 280.2 135.61L269.72 141.61C269.24 141.89 268.85 141.67 268.86 141.11V140.77C268.875 140.47 268.961 140.178 269.111 139.917C269.26 139.657 269.469 139.435 269.72 139.27Z" fill="#EBEBEB"/>
<path d="M269.72 144L280.2 138C280.67 137.72 281.06 137.95 281.06 138.5V138.83C281.045 139.13 280.959 139.423 280.81 139.683C280.66 139.944 280.451 140.166 280.2 140.33L269.72 146.33C269.24 146.61 268.85 146.33 268.86 145.83V145.48C268.878 145.184 268.966 144.896 269.115 144.639C269.264 144.382 269.471 144.163 269.72 144Z" fill="#EBEBEB"/>
<path d="M269.72 148.64L280.2 142.64C280.67 142.37 281.06 142.59 281.06 143.14V143.48C281.042 143.779 280.956 144.07 280.806 144.331C280.657 144.591 280.45 144.813 280.2 144.98L269.72 150.98C269.24 151.26 268.85 151.04 268.86 150.48V150.14C268.875 149.839 268.96 149.547 269.11 149.286C269.259 149.025 269.468 148.804 269.72 148.64Z" fill="#EBEBEB"/>
<path d="M269.72 153.32L287.12 143.32C287.6 143.05 287.99 143.32 287.99 143.82V144.16C287.973 144.46 287.885 144.753 287.734 145.013C287.583 145.274 287.373 145.495 287.12 145.66L269.72 155.66C269.24 155.93 268.85 155.71 268.86 155.16V154.81C268.877 154.511 268.963 154.221 269.113 153.962C269.262 153.704 269.47 153.483 269.72 153.32Z" fill="#EBEBEB"/>
<path d="M269.72 158L287.12 148C287.6 147.72 287.99 148 287.99 148.5V148.83C287.974 149.131 287.886 149.423 287.735 149.684C287.584 149.945 287.373 150.166 287.12 150.33L269.72 160.33C269.24 160.61 268.85 160.38 268.86 159.83V159.49C268.874 159.191 268.96 158.9 269.11 158.641C269.259 158.381 269.468 158.162 269.72 158Z" fill="#EBEBEB"/>
<path d="M304.18 149.91V151.47C304.18 152.24 304.72 152.55 305.38 152.17L325.54 140.53C325.891 140.3 326.182 139.992 326.39 139.628C326.599 139.265 326.719 138.858 326.74 138.44V136.88C326.74 136.11 326.21 135.8 325.54 136.18L305.38 147.82C305.031 148.05 304.74 148.359 304.532 148.722C304.324 149.085 304.203 149.492 304.18 149.91Z" fill="#E0E0E0"/>
<path d="M304.69 115.56L325.59 103.49C326.59 102.93 327.33 103.38 327.33 104.49V128.63C327.295 129.231 327.119 129.816 326.817 130.337C326.515 130.858 326.095 131.301 325.59 131.63L304.69 143.7C303.69 144.25 302.95 143.8 302.95 142.7V118.56C302.983 117.958 303.158 117.373 303.46 116.851C303.763 116.33 304.184 115.887 304.69 115.56Z" fill="#FAFAFA"/>
<path d="M303.91 144.43C303.665 144.433 303.423 144.371 303.21 144.25C302.957 144.083 302.753 143.851 302.62 143.578C302.486 143.306 302.428 143.003 302.45 142.7V118.56C302.483 117.869 302.682 117.195 303.03 116.596C303.378 115.998 303.865 115.491 304.45 115.12L325.35 103.05C325.593 102.86 325.888 102.746 326.197 102.725C326.506 102.703 326.814 102.774 327.081 102.929C327.349 103.084 327.565 103.315 327.7 103.594C327.835 103.872 327.884 104.184 327.84 104.49V128.63C327.806 129.321 327.606 129.992 327.258 130.589C326.91 131.186 326.424 131.691 325.84 132.06L304.94 144.13C304.629 144.318 304.273 144.422 303.91 144.43ZM304.91 115.99C304.479 116.274 304.12 116.653 303.861 117.099C303.603 117.545 303.452 118.046 303.42 118.56V142.7C303.405 142.828 303.42 142.957 303.466 143.077C303.511 143.197 303.584 143.305 303.68 143.39C303.803 143.431 303.934 143.44 304.061 143.418C304.189 143.395 304.309 143.341 304.41 143.26L325.31 131.19C325.74 130.909 326.099 130.531 326.357 130.086C326.616 129.642 326.767 129.143 326.8 128.63V104.49C326.854 104.36 326.859 104.214 326.813 104.08C326.767 103.946 326.674 103.834 326.551 103.764C326.429 103.694 326.284 103.671 326.146 103.7C326.008 103.729 325.885 103.807 325.8 103.92L304.91 115.99Z" fill="#EBEBEB"/>
<path d="M328.05 106.75L323.39 109.44C322.886 109.769 322.467 110.212 322.167 110.733C321.866 111.254 321.693 111.839 321.66 112.44V117.82C321.66 118.92 322.44 119.37 323.39 118.82L328.05 116.13C328.555 115.801 328.975 115.358 329.277 114.837C329.579 114.316 329.755 113.731 329.79 113.13V107.75C329.79 106.64 329 106.19 328.05 106.75Z" fill="#28A7B8"/>
<path d="M306.28 118.16L316.75 112.16C317.23 111.88 317.62 112.16 317.62 112.66V113C317.605 113.301 317.519 113.595 317.367 113.856C317.216 114.116 317.004 114.337 316.75 114.5L306.28 120.5C305.8 120.78 305.41 120.55 305.41 120V119.65C305.429 119.351 305.517 119.06 305.668 118.802C305.819 118.543 306.029 118.323 306.28 118.16Z" fill="#EBEBEB"/>
<path d="M306.28 122.85L316.75 116.85C317.23 116.58 317.62 116.85 317.62 117.35V117.69C317.603 117.991 317.515 118.283 317.364 118.544C317.213 118.804 317.003 119.026 316.75 119.19L306.28 125.19C305.8 125.47 305.41 125.25 305.41 124.69V124.35C305.427 124.049 305.514 123.756 305.665 123.495C305.816 123.235 306.027 123.014 306.28 122.85Z" fill="#EBEBEB"/>
<path d="M306.28 127.53L316.75 121.53C317.23 121.25 317.62 121.53 317.62 122.03V122.36C317.604 122.661 317.516 122.954 317.365 123.214C317.214 123.475 317.003 123.696 316.75 123.86L306.28 129.86C305.8 130.13 305.41 129.91 305.41 129.36V129C305.432 128.704 305.522 128.418 305.673 128.163C305.824 127.908 306.032 127.691 306.28 127.53Z" fill="#EBEBEB"/>
<path d="M306.28 132.22L323.68 122.22C324.16 121.94 324.55 122.17 324.55 122.72V123C324.533 123.301 324.445 123.593 324.294 123.854C324.143 124.115 323.933 124.336 323.68 124.5L306.28 134.5C305.8 134.78 305.41 134.55 305.41 134V133.66C305.434 133.369 305.525 133.088 305.676 132.838C305.827 132.588 306.034 132.377 306.28 132.22Z" fill="#EBEBEB"/>
<path d="M306.28 136.9L323.68 126.9C324.16 126.63 324.55 126.85 324.55 127.4V127.74C324.533 128.041 324.445 128.334 324.294 128.594C324.143 128.855 323.933 129.076 323.68 129.24L306.28 139.24C305.8 139.51 305.41 139.29 305.41 138.74V138.39C305.429 138.091 305.517 137.801 305.668 137.542C305.819 137.283 306.029 137.064 306.28 136.9Z" fill="#EBEBEB"/>
<path d="M267.62 220.83V222.4C267.62 223.16 268.16 223.47 268.83 223.09L289 211.45C289.352 211.224 289.646 210.917 289.856 210.556C290.066 210.194 290.188 209.787 290.21 209.37V207.8C290.21 207.04 289.67 206.73 289 207.11L268.85 218.75C268.494 218.973 268.197 219.279 267.983 219.641C267.769 220.002 267.645 220.41 267.62 220.83Z" fill="#E0E0E0"/>
<path d="M268.13 186.48L289 174.41C289.95 173.86 290.73 174.31 290.73 175.41V199.55C290.696 200.15 290.522 200.734 290.221 201.255C289.921 201.776 289.503 202.219 289 202.55L268.09 214.62C267.09 215.17 266.36 214.73 266.36 213.62V189.48C266.396 188.875 266.575 188.288 266.883 187.766C267.191 187.244 267.618 186.803 268.13 186.48Z" fill="#FAFAFA"/>
<path d="M267.35 215.359C267.105 215.362 266.863 215.3 266.65 215.179C266.398 215.009 266.196 214.775 266.064 214.501C265.933 214.227 265.876 213.923 265.9 213.619V189.48C265.935 188.79 266.135 188.118 266.483 187.521C266.831 186.924 267.317 186.42 267.9 186.049L288.79 173.999C289.033 173.813 289.326 173.703 289.631 173.683C289.937 173.663 290.242 173.734 290.507 173.887C290.772 174.04 290.987 174.268 291.122 174.543C291.258 174.817 291.309 175.126 291.27 175.429V199.569C291.235 200.259 291.035 200.931 290.687 201.528C290.339 202.125 289.853 202.629 289.27 202.999L268.36 215.069C268.053 215.25 267.706 215.35 267.35 215.359ZM289.81 174.669C289.625 174.681 289.446 174.74 289.29 174.839L268.38 186.919C267.951 187.201 267.593 187.579 267.336 188.024C267.079 188.468 266.93 188.967 266.9 189.48V213.619C266.846 213.75 266.841 213.896 266.887 214.03C266.933 214.163 267.026 214.276 267.148 214.346C267.271 214.416 267.415 214.439 267.554 214.41C267.692 214.381 267.815 214.303 267.9 214.189L288.81 202.119C289.237 201.833 289.593 201.453 289.85 201.007C290.106 200.562 290.257 200.063 290.29 199.549V175.409C290.305 175.282 290.289 175.153 290.244 175.033C290.199 174.913 290.125 174.805 290.03 174.719C289.963 174.683 289.886 174.666 289.81 174.669Z" fill="#EBEBEB"/>
<path d="M291.5 177.67L286.84 180.36C286.334 180.688 285.913 181.131 285.611 181.652C285.309 182.173 285.134 182.759 285.1 183.36V188.74C285.1 189.85 285.88 190.29 286.84 189.74L291.5 187.05C292.004 186.721 292.423 186.278 292.724 185.757C293.024 185.236 293.198 184.651 293.23 184.05V178.67C293.23 177.57 292.45 177.12 291.5 177.67Z" fill="#28A7B8"/>
<path d="M269.72 189.09L280.2 183.09C280.67 182.82 281.06 183.04 281.06 183.59V183.93C281.042 184.229 280.956 184.521 280.806 184.781C280.657 185.041 280.45 185.263 280.2 185.43L269.72 191.43C269.24 191.71 268.85 191.49 268.86 190.93V190.59C268.875 190.29 268.96 189.997 269.11 189.736C269.259 189.476 269.468 189.254 269.72 189.09Z" fill="#EBEBEB"/>
<path d="M269.72 193.77L280.2 187.77C280.67 187.49 281.06 187.72 281.06 188.27V188.6C281.044 188.9 280.958 189.192 280.808 189.452C280.659 189.713 280.451 189.935 280.2 190.1L269.72 196.1C269.24 196.37 268.85 196.15 268.86 195.6V195.25C268.878 194.953 268.966 194.665 269.115 194.408C269.264 194.151 269.471 193.933 269.72 193.77Z" fill="#EBEBEB"/>
<path d="M269.72 198.46L280.2 192.46C280.67 192.19 281.06 192.41 281.06 192.96V193.3C281.042 193.599 280.956 193.891 280.806 194.151C280.657 194.411 280.45 194.633 280.2 194.8L269.72 200.8C269.24 201.08 268.85 200.85 268.86 200.3V200C268.867 199.692 268.948 199.391 269.098 199.123C269.248 198.854 269.462 198.627 269.72 198.46Z" fill="#EBEBEB"/>
<path d="M269.72 203.14L287.12 193.14C287.6 192.87 287.99 193.09 287.99 193.64V194C287.973 194.3 287.885 194.593 287.734 194.853C287.583 195.114 287.373 195.335 287.12 195.5L269.72 205.5C269.24 205.77 268.85 205.55 268.86 205V204.65C268.874 204.348 268.959 204.054 269.108 203.791C269.258 203.529 269.468 203.305 269.72 203.14Z" fill="#EBEBEB"/>
<path d="M269.72 207.83L287.12 197.83C287.6 197.55 287.99 197.77 287.99 198.33V198.66C287.973 198.961 287.885 199.254 287.734 199.514C287.583 199.775 287.373 199.996 287.12 200.16L269.72 210.16C269.24 210.44 268.85 210.21 268.86 209.66V209.32C268.874 209.022 268.96 208.73 269.11 208.471C269.259 208.212 269.468 207.992 269.72 207.83Z" fill="#EBEBEB"/>
<path d="M304.18 199.72V201.29C304.18 202.06 304.72 202.37 305.38 201.98L325.54 190.35C325.891 190.121 326.182 189.812 326.39 189.449C326.599 189.086 326.719 188.678 326.74 188.26V186.7C326.74 185.93 326.21 185.62 325.54 186L305.38 197.64C305.032 197.87 304.742 198.177 304.534 198.538C304.326 198.899 304.205 199.304 304.18 199.72Z" fill="#E0E0E0"/>
<path d="M304.69 165.38L325.59 153.31C326.59 152.75 327.33 153.2 327.33 154.31V178.44C327.297 179.042 327.123 179.628 326.82 180.149C326.518 180.671 326.096 181.113 325.59 181.44L304.69 193.52C303.69 194.07 302.95 193.62 302.95 192.52V168.38C302.983 167.778 303.158 167.193 303.46 166.671C303.763 166.15 304.184 165.708 304.69 165.38Z" fill="#FAFAFA"/>
<path d="M303.91 194.25C303.665 194.252 303.423 194.19 303.21 194.07C302.957 193.902 302.753 193.67 302.62 193.398C302.486 193.125 302.428 192.822 302.45 192.52V168.38C302.482 167.688 302.681 167.014 303.029 166.415C303.377 165.816 303.865 165.31 304.45 164.94L325.35 152.87C325.593 152.679 325.888 152.565 326.197 152.544C326.506 152.522 326.814 152.593 327.081 152.748C327.349 152.903 327.565 153.135 327.7 153.413C327.835 153.691 327.884 154.003 327.84 154.31V178.44C327.807 179.132 327.609 179.805 327.261 180.404C326.912 181.003 326.425 181.509 325.84 181.88L304.94 194C304.624 194.17 304.269 194.256 303.91 194.25ZM304.91 165.81C304.479 166.093 304.12 166.473 303.861 166.919C303.603 167.365 303.452 167.865 303.42 168.38V192.52C303.403 192.646 303.418 192.774 303.463 192.893C303.509 193.012 303.583 193.117 303.68 193.2C303.802 193.243 303.933 193.254 304.06 193.233C304.188 193.212 304.308 193.159 304.41 193.08L325.34 181C325.771 180.716 326.13 180.337 326.388 179.891C326.647 179.445 326.798 178.944 326.83 178.43V154.31C326.884 154.179 326.889 154.033 326.843 153.9C326.797 153.766 326.704 153.653 326.581 153.583C326.459 153.513 326.314 153.491 326.176 153.519C326.038 153.548 325.915 153.627 325.83 153.74L304.91 165.81Z" fill="#EBEBEB"/>
<path d="M328.05 156.57L323.39 159.26C322.886 159.589 322.467 160.032 322.167 160.553C321.866 161.074 321.693 161.659 321.66 162.26V167.64C321.66 168.74 322.44 169.19 323.39 168.64L328.05 165.95C328.555 165.62 328.975 165.178 329.277 164.657C329.579 164.136 329.755 163.551 329.79 162.95V157.57C329.79 156.46 329 156 328.05 156.57Z" fill="#28A7B8"/>
<path d="M306.28 168L316.75 162C317.23 161.72 317.62 161.95 317.62 162.5V162.83C317.604 163.131 317.516 163.424 317.365 163.685C317.214 163.946 317.003 164.167 316.75 164.33L306.28 170.33C305.8 170.6 305.41 170.33 305.41 169.83V169.48C305.43 169.183 305.52 168.895 305.671 168.638C305.822 168.381 306.03 168.163 306.28 168Z" fill="#EBEBEB"/>
<path d="M306.28 172.67L316.75 166.67C317.23 166.4 317.62 166.67 317.62 167.17V167.51C317.603 167.811 317.515 168.103 317.364 168.364C317.213 168.625 317.003 168.846 316.75 169.01L306.28 175.01C305.8 175.29 305.41 175.06 305.41 174.51V174.17C305.425 173.869 305.512 173.575 305.663 173.315C305.814 173.054 306.026 172.833 306.28 172.67Z" fill="#EBEBEB"/>
<path d="M306.28 177.35L316.75 171.35C317.23 171.07 317.62 171.29 317.62 171.85V172.18C317.603 172.481 317.515 172.773 317.364 173.034C317.213 173.294 317.003 173.516 316.75 173.68L306.28 179.68C305.8 179.95 305.41 179.73 305.41 179.18V178.83C305.43 178.533 305.52 178.244 305.671 177.987C305.822 177.73 306.03 177.512 306.28 177.35Z" fill="#EBEBEB"/>
<path d="M306.28 182L323.68 172C324.16 171.72 324.55 171.94 324.55 172.5V172.83C324.533 173.131 324.445 173.424 324.294 173.684C324.143 173.945 323.933 174.166 323.68 174.33L306.28 184.33C305.8 184.61 305.41 184.38 305.41 183.83V183.49C305.426 183.191 305.514 182.899 305.665 182.64C305.816 182.381 306.027 182.162 306.28 182Z" fill="#EBEBEB"/>
<path d="M306.28 186.72L323.68 176.72C324.16 176.44 324.55 176.67 324.55 177.22V177.55C324.535 177.851 324.449 178.145 324.297 178.406C324.146 178.667 323.934 178.888 323.68 179.05L306.28 189.05C305.8 189.32 305.41 189.1 305.41 188.55V188.2C305.43 187.903 305.52 187.614 305.671 187.357C305.822 187.101 306.03 186.882 306.28 186.72Z" fill="#EBEBEB"/>
<path d="M192.9 264V265.56C192.9 266.33 193.44 266.64 194.11 266.26L214.26 254.62C214.611 254.394 214.904 254.087 215.115 253.725C215.325 253.364 215.447 252.958 215.47 252.54V251C215.47 250.23 214.93 249.92 214.26 250.31L194.11 261.94C193.762 262.166 193.472 262.47 193.262 262.827C193.052 263.185 192.928 263.586 192.9 264Z" fill="#E0E0E0"/>
<path d="M193.41 229.65L214.32 217.58C215.32 217.03 216.05 217.47 216.05 218.58V242.72C216.015 243.321 215.841 243.904 215.54 244.425C215.24 244.946 214.822 245.39 214.32 245.72L193.41 257.79C192.41 258.34 191.68 257.89 191.68 256.79V232.65C191.711 232.049 191.884 231.464 192.185 230.942C192.485 230.421 192.905 229.978 193.41 229.65Z" fill="#FAFAFA"/>
<path d="M192.63 258.52C192.385 258.523 192.143 258.46 191.93 258.34C191.678 258.172 191.476 257.94 191.344 257.667C191.212 257.395 191.155 257.092 191.18 256.79V232.65C191.215 231.96 191.414 231.289 191.762 230.692C192.11 230.095 192.596 229.59 193.18 229.22L214.09 217.15C214.332 216.959 214.625 216.844 214.933 216.822C215.241 216.799 215.548 216.869 215.815 217.023C216.083 217.177 216.297 217.408 216.432 217.686C216.566 217.963 216.614 218.275 216.57 218.58V242.72C216.535 243.41 216.335 244.082 215.987 244.679C215.639 245.275 215.153 245.78 214.57 246.15L193.66 258.22C193.348 258.408 192.993 258.512 192.63 258.52ZM193.66 230.08C193.231 230.365 192.874 230.745 192.617 231.191C192.36 231.637 192.21 232.136 192.18 232.65V256.79C192.126 256.921 192.121 257.067 192.167 257.2C192.212 257.334 192.305 257.447 192.428 257.517C192.551 257.587 192.695 257.609 192.834 257.581C192.972 257.552 193.095 257.473 193.18 257.36L214.09 245.28C214.517 244.996 214.873 244.618 215.13 244.173C215.386 243.729 215.537 243.232 215.57 242.72V218.58C215.624 218.45 215.629 218.304 215.583 218.17C215.537 218.036 215.444 217.924 215.321 217.854C215.199 217.784 215.054 217.761 214.916 217.79C214.778 217.819 214.655 217.897 214.57 218.01L193.66 230.08Z" fill="#EBEBEB"/>
<path d="M216.78 220.84L212.12 223.53C211.614 223.857 211.192 224.3 210.89 224.821C210.587 225.343 210.413 225.928 210.38 226.53V231.91C210.38 233.01 211.16 233.46 212.12 232.91L216.78 230.22C217.283 229.89 217.701 229.447 218.001 228.926C218.302 228.405 218.476 227.82 218.51 227.22V221.84C218.51 220.73 217.73 220.29 216.78 220.84Z" fill="#28A7B8"/>
<path d="M195 232.26L205.48 226.26C205.95 225.98 206.34 226.21 206.34 226.76V227.09C206.325 227.39 206.239 227.682 206.09 227.943C205.94 228.204 205.731 228.425 205.48 228.59L195 234.59C194.52 234.87 194.14 234.59 194.14 234.09V233.75C194.155 233.451 194.24 233.16 194.39 232.901C194.539 232.642 194.749 232.422 195 232.26Z" fill="#EBEBEB"/>
<path d="M195 236.94L205.48 230.94C205.95 230.67 206.34 230.89 206.34 231.45V231.78C206.323 232.08 206.236 232.371 206.086 232.631C205.937 232.892 205.73 233.114 205.48 233.28L195 239.28C194.52 239.55 194.14 239.28 194.14 238.78V238.43C194.157 238.132 194.244 237.842 194.393 237.583C194.542 237.324 194.75 237.104 195 236.94Z" fill="#EBEBEB"/>
<path d="M195 241.63L205.48 235.63C205.95 235.35 206.34 235.58 206.34 236.13V236.46C206.325 236.76 206.239 237.053 206.09 237.313C205.94 237.574 205.731 237.796 205.48 237.96L195 244C194.52 244.28 194.14 244 194.14 243.5V243.15C194.15 242.846 194.233 242.549 194.383 242.284C194.533 242.02 194.745 241.795 195 241.63Z" fill="#EBEBEB"/>
<path d="M195 246.31L212.4 236.31C212.88 236.03 213.27 236.31 213.27 236.81V237.14C213.255 237.442 213.169 237.735 213.017 237.996C212.866 238.257 212.654 238.478 212.4 238.64L195 248.64C194.52 248.92 194.14 248.7 194.14 248.14V247.8C194.157 247.502 194.244 247.212 194.393 246.953C194.542 246.694 194.75 246.474 195 246.31Z" fill="#EBEBEB"/>
<path d="M195 251L212.4 241C212.88 240.73 213.27 241 213.27 241.5V241.84C213.253 242.141 213.165 242.433 213.014 242.694C212.863 242.955 212.653 243.176 212.4 243.34L195 253.34C194.52 253.61 194.14 253.39 194.14 252.84V252.49C194.157 252.192 194.244 251.902 194.393 251.643C194.542 251.384 194.75 251.164 195 251Z" fill="#EBEBEB"/>
<path d="M229.46 242.89V244.46C229.46 245.22 230 245.54 230.66 245.15L250.82 233.51C251.171 233.284 251.464 232.977 251.672 232.615C251.881 232.254 252 231.847 252.02 231.43V229.87C252.02 229.1 251.49 228.79 250.82 229.17L230.66 240.81C230.311 241.039 230.021 241.346 229.813 241.707C229.605 242.069 229.484 242.474 229.46 242.89Z" fill="#E0E0E0"/>
<path d="M230 208.54L250.9 196.47C251.9 195.92 252.64 196.37 252.64 197.47V221.61C252.607 222.212 252.433 222.798 252.13 223.319C251.828 223.84 251.406 224.283 250.9 224.61L230 236.68C229 237.24 228.26 236.79 228.26 235.68V211.54C228.295 210.939 228.471 210.354 228.773 209.833C229.076 209.312 229.496 208.869 230 208.54Z" fill="#FAFAFA"/>
<path d="M229.19 237.42C228.945 237.423 228.704 237.361 228.49 237.24C228.237 237.07 228.034 236.836 227.9 236.562C227.767 236.289 227.708 235.984 227.73 235.68V211.54C227.766 210.851 227.966 210.179 228.314 209.583C228.662 208.986 229.147 208.481 229.73 208.11L250.62 196C250.863 195.811 251.157 195.698 251.464 195.676C251.772 195.654 252.079 195.724 252.346 195.878C252.613 196.031 252.829 196.261 252.965 196.537C253.101 196.814 253.151 197.125 253.11 197.43V221.57C253.078 222.261 252.879 222.933 252.531 223.531C252.183 224.128 251.695 224.632 251.11 225L230.21 237.08C229.906 237.281 229.554 237.398 229.19 237.42ZM251.65 196.74C251.461 196.746 251.277 196.805 251.12 196.91L230.22 209C229.79 209.282 229.431 209.66 229.173 210.104C228.914 210.549 228.763 211.047 228.73 211.56V235.7C228.712 235.828 228.727 235.958 228.772 236.078C228.818 236.199 228.892 236.306 228.99 236.39C229.112 236.431 229.243 236.441 229.37 236.42C229.497 236.399 229.617 236.348 229.72 236.27L250.62 224.2C251.05 223.916 251.409 223.537 251.668 223.091C251.926 222.645 252.078 222.145 252.11 221.63V197.47C252.125 197.343 252.11 197.214 252.064 197.094C252.019 196.973 251.946 196.866 251.85 196.78C251.787 196.752 251.719 196.738 251.65 196.74Z" fill="#EBEBEB"/>
<path d="M253.33 199.73L248.67 202.42C248.168 202.751 247.75 203.194 247.45 203.715C247.149 204.236 246.975 204.82 246.94 205.42V210.8C246.94 211.91 247.72 212.36 248.67 211.8L253.33 209.11C253.836 208.783 254.258 208.34 254.56 207.819C254.862 207.297 255.037 206.712 255.07 206.11V200.73C255.07 199.63 254.29 199.18 253.33 199.73Z" fill="#28A7B8"/>
<path d="M231.56 211.15L242.03 205.15C242.51 204.88 242.9 205.1 242.9 205.66V206C242.883 206.301 242.795 206.593 242.644 206.854C242.493 207.114 242.282 207.336 242.03 207.5L231.56 213.5C231.08 213.77 230.69 213.55 230.69 212.99V212.65C230.707 212.349 230.795 212.057 230.946 211.796C231.097 211.536 231.307 211.314 231.56 211.15Z" fill="#EBEBEB"/>
<path d="M231.56 215.84L242.03 209.84C242.51 209.56 242.9 209.79 242.9 210.34V210.67C242.885 210.972 242.798 211.265 242.647 211.526C242.496 211.787 242.284 212.008 242.03 212.17L231.56 218.17C231.08 218.45 230.69 218.22 230.69 217.67V217.32C230.708 217.022 230.796 216.733 230.947 216.476C231.098 216.219 231.308 216.001 231.56 215.84Z" fill="#EBEBEB"/>
<path d="M231.56 220.519L242.03 214.519C242.51 214.249 242.9 214.469 242.9 215.019V215.359C242.883 215.66 242.795 215.953 242.644 216.213C242.493 216.474 242.282 216.695 242.03 216.859L231.56 222.859C231.08 223.139 230.69 222.919 230.69 222.359V221.999C230.71 221.702 230.799 221.414 230.95 221.157C231.101 220.9 231.31 220.682 231.56 220.519Z" fill="#EBEBEB"/>
<path d="M231.56 225.2L248.96 215.2C249.44 214.93 249.83 215.15 249.83 215.7V216C249.813 216.301 249.725 216.593 249.574 216.854C249.423 217.115 249.212 217.336 248.96 217.5L231.56 227.5C231.08 227.77 230.69 227.55 230.69 227V226.65C230.715 226.358 230.806 226.076 230.957 225.824C231.108 225.573 231.314 225.359 231.56 225.2Z" fill="#EBEBEB"/>
<path d="M231.56 229.89L248.96 219.89C249.44 219.61 249.83 219.84 249.83 220.39V220.72C249.814 221.021 249.726 221.314 249.575 221.574C249.424 221.835 249.213 222.056 248.96 222.22L231.56 232.22C231.08 232.5 230.69 232.22 230.69 231.72V231.38C230.706 231.08 230.794 230.789 230.945 230.53C231.096 230.271 231.307 230.052 231.56 229.89Z" fill="#EBEBEB"/>
<path d="M134.81 134.91L130.75 132.54V151.31L134.81 153.66V134.91Z" fill="#28A7B8"/>
<path opacity="0.1" d="M134.81 134.91L130.75 132.54V151.31L134.81 153.66V134.91Z" fill="black"/>
<path d="M374.73 212.47C374.267 212.261 373.758 212.176 373.253 212.226C372.747 212.275 372.263 212.456 371.85 212.75C370.67 213.517 369.686 214.55 368.978 215.765C368.269 216.981 367.855 218.346 367.77 219.75C367.716 220.255 367.797 220.766 368.005 221.229C368.212 221.693 368.538 222.093 368.95 222.39L419.57 254.39C420.57 255.09 422.08 255.05 423.73 254.1C425.388 253.027 426.77 251.577 427.762 249.869C428.754 248.161 429.329 246.243 429.44 244.27C429.44 242.37 428.74 241.06 427.62 240.51L374.73 212.47Z" fill="#28A7B8"/>
<path opacity="0.15" d="M367.77 219.791C367.77 222.381 369.58 223.441 371.83 222.151C373.01 221.384 373.994 220.351 374.702 219.136C375.411 217.92 375.825 216.555 375.91 215.151C375.91 212.561 374.1 211.501 371.85 212.791C370.67 213.557 369.686 214.59 368.978 215.806C368.269 217.021 367.856 218.386 367.77 219.791Z" fill="black"/>
<path d="M356.57 205.741C355.852 206.206 355.254 206.834 354.825 207.575C354.395 208.315 354.147 209.146 354.1 210.001C354.068 210.305 354.117 210.612 354.242 210.891C354.367 211.17 354.563 211.412 354.81 211.591L370.09 220.461C370.367 220.59 370.674 220.642 370.978 220.612C371.283 220.582 371.573 220.471 371.82 220.291C372.546 219.826 373.15 219.193 373.581 218.447C374.013 217.701 374.259 216.862 374.3 216.001C374.336 215.695 374.289 215.385 374.164 215.104C374.039 214.822 373.841 214.58 373.59 214.401L358.31 205.531C358.028 205.408 357.718 205.362 357.412 205.399C357.106 205.436 356.815 205.554 356.57 205.741Z" fill="#263238"/>
<path opacity="0.1" d="M373.74 220.49L425.82 252.49C425.203 253.13 424.504 253.685 423.74 254.14C422.09 255.09 420.61 255.14 419.57 254.43L368.96 222.43C369.42 222.643 369.929 222.729 370.433 222.68C370.937 222.631 371.42 222.448 371.83 222.15C372.557 221.711 373.203 221.149 373.74 220.49Z" fill="black"/>
<path d="M382.48 174.93C382.48 174.5 382.48 174.09 382.42 173.67C382.36 173.25 382.37 172.84 382.32 172.43C382.27 172.02 382.27 171.89 382.24 171.62C382.17 170.9 382.06 170.2 381.95 169.53C381.89 169.23 381.84 168.91 381.78 168.61C381.72 168.31 381.66 168.04 381.6 167.75C381.42 166.98 381.24 166.22 381.02 165.5C380.9 165.16 380.8 164.81 380.68 164.5C380.66 164.448 380.644 164.395 380.63 164.34C380.5 164 380.39 163.68 380.26 163.34C380.125 162.973 379.972 162.612 379.8 162.26C379.691 161.997 379.568 161.74 379.43 161.49C379.359 161.302 379.268 161.121 379.16 160.95C379.06 160.73 378.94 160.51 378.82 160.3L378.73 160.15C378.63 159.96 378.51 159.78 378.4 159.59C378.29 159.4 378.24 159.35 378.17 159.23C377.631 158.386 377.029 157.584 376.37 156.83C376.25 156.71 376.14 156.58 376.03 156.46C375.92 156.34 375.84 156.26 375.75 156.16L375.38 155.8C375.04 155.443 374.675 155.109 374.29 154.8C374.116 154.646 373.932 154.503 373.74 154.37C373.55 154.22 373.36 154.08 373.16 153.95C372.863 153.729 372.552 153.525 372.23 153.34L371.98 153.18H371.93L360.93 146.79L360.85 146.74C358.003 145.153 354.79 144.339 351.53 144.38C346.67 144.38 341.19 145.98 335.38 149.33C315.38 160.85 299.24 188.87 299.24 211.93C299.24 223.42 303.24 231.5 309.76 235.29H309.82L320.82 241.67H320.88L321.06 241.77C321.35 241.93 321.63 242.08 321.92 242.22C322.21 242.36 322.64 242.55 323.01 242.7C323.38 242.85 323.67 242.96 324.01 243.06C324.186 243.127 324.366 243.181 324.55 243.22C324.734 243.295 324.925 243.352 325.12 243.39L325.71 243.54C325.851 243.58 325.995 243.61 326.14 243.63L326.92 243.77H327.1L328.04 243.89C333.43 244.46 339.69 242.94 346.39 239.08C366.39 227.55 382.53 199.52 382.53 176.48C382.51 176 382.5 175.48 382.48 174.93ZM358.27 158.63C359.053 161.497 359.436 164.459 359.41 167.43C359.41 187.76 344.53 213.52 326.93 223.68C324.361 225.21 321.586 226.365 318.69 227.11C317.907 224.24 317.524 221.275 317.55 218.3C317.55 197.97 332.42 172.21 350.03 162.05C352.599 160.522 355.374 159.37 358.27 158.63Z" fill="#28A7B8"/>
<path opacity="0.1" d="M320.3 241.42L309.7 235.28C303.2 231.48 299.18 223.39 299.18 211.92C299.18 201.64 302.4 190.38 307.73 180.03L318.73 186.42C313.39 196.76 310.17 208.03 310.17 218.31C310.21 229.55 314 237.52 320.3 241.42Z" fill="black"/>
<path opacity="0.4" d="M382.48 174.93C382.48 174.5 382.48 174.09 382.42 173.67C382.36 173.25 382.37 172.84 382.32 172.43C382.27 172.02 382.27 171.89 382.24 171.62C382.17 170.9 382.06 170.2 381.95 169.53C381.89 169.23 381.84 168.91 381.78 168.61C381.72 168.31 381.66 168.04 381.6 167.75C381.42 166.98 381.24 166.22 381.02 165.5C380.9 165.16 380.8 164.81 380.68 164.5C380.66 164.448 380.644 164.394 380.63 164.34C380.5 164 380.39 163.68 380.26 163.34C380.125 162.973 379.971 162.612 379.8 162.26C379.691 161.997 379.568 161.74 379.43 161.49C379.359 161.301 379.268 161.121 379.16 160.95C379.06 160.73 378.94 160.51 378.82 160.3L378.73 160.15C378.63 159.96 378.51 159.78 378.4 159.59C378.29 159.4 378.24 159.35 378.17 159.23C377.631 158.386 377.029 157.584 376.37 156.83C376.25 156.71 376.14 156.58 376.03 156.46C375.92 156.34 375.84 156.26 375.75 156.16L375.38 155.8C375.04 155.443 374.675 155.109 374.29 154.8C374.116 154.646 373.932 154.502 373.74 154.37C373.55 154.22 373.36 154.08 373.16 153.95C372.863 153.728 372.552 153.525 372.23 153.34C365.67 149.34 356.23 149.44 346.37 155.67C326.56 168.15 310.32 195.82 310.22 218.27C310.17 229.95 314.36 238.1 321.05 241.81C321.34 241.97 321.62 242.12 321.91 242.26C322.2 242.4 322.63 242.59 323 242.74C323.37 242.89 323.66 243 324 243.1C324.176 243.167 324.356 243.221 324.54 243.26C324.724 243.335 324.915 243.392 325.11 243.43L325.7 243.58C325.841 243.62 325.985 243.65 326.13 243.67L326.91 243.81H327.09L328.03 243.93C333.42 244.5 339.68 242.98 346.38 239.12C366.38 227.59 382.52 199.56 382.52 176.52C382.51 176 382.5 175.48 382.48 174.93ZM342.7 232.83C338.22 235.42 333.91 236.78 330.22 236.78C323.3 236.78 320.12 232.06 318.69 227.11C317.907 224.24 317.523 221.275 317.55 218.3C317.55 197.97 332.42 172.21 350.03 162.05C352.599 160.521 355.374 159.37 358.27 158.63C359.658 158.29 361.081 158.112 362.51 158.1C373.95 158.1 375.17 171.02 375.17 176.58C375.17 196.91 360.31 222.67 342.7 232.83Z" fill="white"/>
<path opacity="0.1" d="M375.17 176.581C375.17 196.901 360.31 222.671 342.7 232.831C338.22 235.421 333.91 236.781 330.23 236.781C328.622 236.845 327.02 236.543 325.545 235.897C324.071 235.25 322.763 234.277 321.72 233.051C321.54 232.841 321.37 232.621 321.2 232.401C321.03 232.181 320.87 231.951 320.73 231.711C320.617 231.546 320.514 231.376 320.42 231.201C320.35 231.091 320.28 230.981 320.22 230.871C320.16 230.761 320.08 230.591 320 230.451C319.92 230.311 319.87 230.191 319.81 230.061C319.75 229.931 319.68 229.801 319.62 229.661L319.32 228.941C319.2 228.641 319.09 228.341 318.99 228.031C318.89 227.721 318.78 227.421 318.7 227.111C321.596 226.365 324.371 225.21 326.94 223.681C344.54 213.521 359.42 187.761 359.42 167.431C359.446 164.459 359.063 161.498 358.28 158.631C359.668 158.291 361.091 158.113 362.52 158.101C363.078 158.102 363.636 158.136 364.19 158.201L364.71 158.281C374.1 159.841 375.17 171.401 375.17 176.581Z" fill="black"/>
<path opacity="0.7" d="M368.85 173C368.85 193.33 353.99 219.09 336.38 229.25C331.9 231.84 327.59 233.25 323.9 233.25C323.167 233.253 322.434 233.193 321.71 233.07C321.53 232.86 321.36 232.64 321.19 232.42C321.02 232.2 320.86 231.97 320.72 231.73C320.608 231.566 320.504 231.396 320.41 231.22C320.34 231.11 320.27 231 320.21 230.89C320.15 230.78 320.07 230.61 319.99 230.47C319.91 230.33 319.86 230.21 319.8 230.08C319.74 229.95 319.67 229.82 319.61 229.68L319.31 228.96C319.19 228.66 319.08 228.36 318.98 228.05C318.88 227.74 318.77 227.44 318.69 227.13C321.586 226.385 324.361 225.23 326.93 223.7C344.53 213.54 359.41 187.78 359.41 167.45C359.436 164.478 359.053 161.517 358.27 158.65C359.659 158.31 361.081 158.132 362.51 158.12C363.069 158.122 363.626 158.155 364.18 158.22L364.7 158.3C368.32 162.54 368.85 169.37 368.85 173Z" fill="white"/>
</svg>
